<?xml version="1.0" encoding="UTF-8"?>
<svg xmlns="http://www.w3.org/2000/svg" xmlns:xlink="http://www.w3.org/1999/xlink" width="375pt" height="374.999991pt" viewBox="0 0 375 374.999991" version="1.2">
<g id="surface1">
<path style=" stroke:none;fill-rule:nonzero;fill:rgb(14.509583%,39.219666%,65.489197%);fill-opacity:1;" d="M 134.929688 25.101562 C 135.589844 25.496094 136.207031 25.953125 136.777344 26.46875 C 137.347656 26.984375 137.859375 27.554688 138.320312 28.171875 C 138.777344 28.789062 139.171875 29.445312 139.5 30.140625 C 139.832031 30.835938 140.089844 31.558594 140.277344 32.304688 C 140.464844 33.050781 140.574219 33.808594 140.613281 34.578125 C 140.652344 35.347656 140.613281 36.113281 140.5 36.875 C 140.386719 37.632812 140.203125 38.378906 139.941406 39.101562 C 139.683594 39.828125 139.355469 40.519531 138.960938 41.179688 L 79.289062 140.625 L 295.710938 140.625 L 236.015625 41.179688 C 235.621094 40.519531 235.292969 39.828125 235.035156 39.101562 C 234.773438 38.378906 234.589844 37.632812 234.476562 36.875 C 234.363281 36.113281 234.324219 35.347656 234.363281 34.578125 C 234.402344 33.808594 234.515625 33.050781 234.703125 32.304688 C 234.886719 31.558594 235.148438 30.839844 235.476562 30.140625 C 235.804688 29.445312 236.199219 28.789062 236.65625 28.171875 C 237.117188 27.554688 237.628906 26.988281 238.199219 26.46875 C 238.769531 25.953125 239.386719 25.496094 240.046875 25.101562 C 240.707031 24.707031 241.398438 24.378906 242.125 24.121094 C 242.847656 23.859375 243.59375 23.675781 244.351562 23.5625 C 245.113281 23.449219 245.878906 23.410156 246.648438 23.449219 C 247.417969 23.488281 248.175781 23.601562 248.921875 23.789062 C 249.667969 23.972656 250.386719 24.234375 251.085938 24.5625 C 251.78125 24.890625 252.4375 25.285156 253.054688 25.742188 C 253.671875 26.203125 254.238281 26.714844 254.757812 27.285156 C 255.273438 27.855469 255.730469 28.472656 256.125 29.132812 L 323.039062 140.625 L 351.5625 140.625 C 352.332031 140.625 353.097656 140.664062 353.859375 140.738281 C 354.625 140.8125 355.382812 140.925781 356.136719 141.074219 C 356.886719 141.226562 357.632812 141.410156 358.367188 141.632812 C 359.101562 141.855469 359.824219 142.117188 360.53125 142.410156 C 361.242188 142.703125 361.933594 143.03125 362.609375 143.390625 C 363.289062 143.753906 363.945312 144.148438 364.582031 144.574219 C 365.222656 145 365.835938 145.457031 366.429688 145.945312 C 367.023438 146.433594 367.59375 146.945312 368.136719 147.488281 C 368.679688 148.03125 369.191406 148.601562 369.679688 149.195312 C 370.167969 149.789062 370.625 150.402344 371.050781 151.042969 C 371.476562 151.679688 371.871094 152.335938 372.234375 153.015625 C 372.59375 153.691406 372.921875 154.382812 373.214844 155.09375 C 373.507812 155.800781 373.769531 156.523438 373.992188 157.257812 C 374.214844 157.992188 374.398438 158.738281 374.550781 159.488281 C 374.699219 160.242188 374.8125 161 374.886719 161.765625 C 374.960938 162.527344 375 163.292969 375 164.0625 L 375 187.5 C 375 188.269531 374.960938 189.035156 374.886719 189.796875 C 374.8125 190.5625 374.699219 191.320312 374.550781 192.074219 C 374.398438 192.824219 374.214844 193.570312 373.992188 194.304688 C 373.769531 195.039062 373.507812 195.761719 373.214844 196.46875 C 372.921875 197.179688 372.59375 197.871094 372.234375 198.546875 C 371.871094 199.226562 371.476562 199.882812 371.050781 200.519531 C 370.625 201.160156 370.167969 201.773438 369.679688 202.367188 C 369.191406 202.960938 368.679688 203.53125 368.136719 204.074219 C 367.59375 204.617188 367.023438 205.128906 366.429688 205.617188 C 365.835938 206.105469 365.222656 206.5625 364.582031 206.988281 C 363.945312 207.414062 363.289062 207.808594 362.609375 208.171875 C 361.933594 208.53125 361.242188 208.859375 360.53125 209.152344 C 359.824219 209.445312 359.101562 209.707031 358.367188 209.929688 C 357.632812 210.152344 356.886719 210.335938 356.136719 210.488281 C 355.382812 210.636719 354.625 210.75 353.859375 210.824219 C 353.097656 210.898438 352.332031 210.9375 351.5625 210.9375 L 351.5625 316.40625 C 351.5625 318.324219 351.46875 320.238281 351.28125 322.148438 C 351.09375 324.058594 350.8125 325.957031 350.4375 327.835938 C 350.0625 329.71875 349.597656 331.578125 349.039062 333.414062 C 348.480469 335.25 347.835938 337.054688 347.101562 338.828125 C 346.367188 340.601562 345.546875 342.335938 344.644531 344.027344 C 343.738281 345.71875 342.753906 347.363281 341.6875 348.960938 C 340.621094 350.554688 339.480469 352.09375 338.261719 353.578125 C 337.042969 355.0625 335.757812 356.480469 334.402344 357.839844 C 333.042969 359.195312 331.625 360.480469 330.140625 361.699219 C 328.65625 362.917969 327.117188 364.058594 325.523438 365.125 C 323.925781 366.191406 322.28125 367.175781 320.589844 368.082031 C 318.898438 368.984375 317.164062 369.804688 315.390625 370.539062 C 313.617188 371.273438 311.8125 371.917969 309.976562 372.476562 C 308.140625 373.035156 306.28125 373.5 304.398438 373.875 C 302.519531 374.25 300.621094 374.53125 298.710938 374.71875 C 296.800781 374.90625 294.886719 375 292.96875 375 L 82.03125 375 C 80.113281 375 78.199219 374.90625 76.289062 374.71875 C 74.378906 374.53125 72.480469 374.25 70.601562 373.875 C 68.71875 373.5 66.859375 373.035156 65.023438 372.476562 C 63.1875 371.917969 61.382812 371.273438 59.609375 370.539062 C 57.835938 369.804688 56.101562 368.984375 54.410156 368.082031 C 52.71875 367.175781 51.074219 366.191406 49.476562 365.125 C 47.882812 364.058594 46.34375 362.917969 44.859375 361.699219 C 43.375 360.480469 41.957031 359.195312 40.597656 357.839844 C 39.242188 356.480469 37.957031 355.0625 36.738281 353.578125 C 35.519531 352.09375 34.378906 350.554688 33.3125 348.960938 C 32.246094 347.363281 31.261719 345.71875 30.355469 344.027344 C 29.453125 342.335938 28.632812 340.601562 27.898438 338.828125 C 27.164062 337.054688 26.519531 335.25 25.960938 333.414062 C 25.402344 331.578125 24.9375 329.71875 24.5625 327.835938 C 24.1875 325.957031 23.90625 324.058594 23.71875 322.148438 C 23.53125 320.238281 23.4375 318.324219 23.4375 316.40625 L 23.4375 210.9375 C 22.667969 210.9375 21.902344 210.898438 21.140625 210.824219 C 20.375 210.75 19.617188 210.636719 18.863281 210.488281 C 18.113281 210.335938 17.367188 210.152344 16.632812 209.929688 C 15.898438 209.707031 15.175781 209.445312 14.46875 209.152344 C 13.757812 208.859375 13.066406 208.53125 12.390625 208.171875 C 11.710938 207.808594 11.054688 207.414062 10.417969 206.988281 C 9.777344 206.5625 9.164062 206.105469 8.570312 205.617188 C 7.976562 205.128906 7.40625 204.617188 6.863281 204.074219 C 6.320312 203.53125 5.808594 202.960938 5.320312 202.367188 C 4.832031 201.773438 4.375 201.160156 3.949219 200.519531 C 3.523438 199.882812 3.128906 199.226562 2.765625 198.546875 C 2.40625 197.871094 2.078125 197.179688 1.785156 196.46875 C 1.492188 195.761719 1.230469 195.039062 1.007812 194.304688 C 0.785156 193.570312 0.601562 192.824219 0.449219 192.074219 C 0.300781 191.320312 0.1875 190.5625 0.113281 189.796875 C 0.0390625 189.035156 0 188.269531 0 187.5 L 0 164.0625 C 0 163.292969 0.0390625 162.527344 0.113281 161.765625 C 0.1875 161 0.300781 160.242188 0.449219 159.488281 C 0.601562 158.738281 0.785156 157.992188 1.007812 157.257812 C 1.230469 156.523438 1.492188 155.800781 1.785156 155.09375 C 2.078125 154.382812 2.40625 153.691406 2.765625 153.015625 C 3.128906 152.335938 3.523438 151.679688 3.949219 151.042969 C 4.375 150.402344 4.832031 149.789062 5.320312 149.195312 C 5.808594 148.601562 6.320312 148.03125 6.863281 147.488281 C 7.40625 146.945312 7.976562 146.433594 8.570312 145.945312 C 9.164062 145.457031 9.777344 145 10.417969 144.574219 C 11.054688 144.148438 11.710938 143.753906 12.390625 143.390625 C 13.066406 143.03125 13.757812 142.703125 14.46875 142.410156 C 15.175781 142.117188 15.898438 141.855469 16.632812 141.632812 C 17.367188 141.410156 18.113281 141.226562 18.863281 141.074219 C 19.617188 140.925781 20.375 140.8125 21.140625 140.738281 C 21.902344 140.664062 22.667969 140.625 23.4375 140.625 L 51.960938 140.625 L 118.828125 29.132812 C 119.222656 28.472656 119.679688 27.855469 120.195312 27.285156 C 120.710938 26.714844 121.28125 26.203125 121.898438 25.742188 C 122.515625 25.285156 123.171875 24.890625 123.867188 24.5625 C 124.566406 24.230469 125.285156 23.972656 126.03125 23.785156 C 126.777344 23.597656 127.535156 23.488281 128.304688 23.449219 C 129.074219 23.410156 129.839844 23.449219 130.601562 23.5625 C 131.359375 23.675781 132.105469 23.859375 132.828125 24.121094 C 133.554688 24.378906 134.246094 24.707031 134.90625 25.101562 Z M 46.875 210.9375 L 46.875 316.40625 C 46.875 317.558594 46.929688 318.707031 47.042969 319.851562 C 47.15625 320.996094 47.324219 322.136719 47.550781 323.265625 C 47.773438 324.394531 48.054688 325.507812 48.390625 326.613281 C 48.722656 327.714844 49.109375 328.796875 49.550781 329.859375 C 49.992188 330.921875 50.484375 331.964844 51.027344 332.980469 C 51.570312 333.996094 52.160156 334.980469 52.800781 335.9375 C 53.441406 336.894531 54.125 337.820312 54.855469 338.710938 C 55.585938 339.597656 56.359375 340.453125 57.171875 341.265625 C 57.984375 342.078125 58.839844 342.851562 59.726562 343.582031 C 60.617188 344.3125 61.542969 344.996094 62.5 345.636719 C 63.457031 346.277344 64.441406 346.867188 65.457031 347.410156 C 66.472656 347.953125 67.515625 348.445312 68.578125 348.886719 C 69.640625 349.328125 70.722656 349.714844 71.824219 350.046875 C 72.929688 350.382812 74.042969 350.664062 75.171875 350.886719 C 76.300781 351.113281 77.441406 351.28125 78.585938 351.394531 C 79.730469 351.507812 80.878906 351.5625 82.03125 351.5625 L 292.96875 351.5625 C 294.121094 351.5625 295.269531 351.507812 296.414062 351.394531 C 297.558594 351.28125 298.699219 351.113281 299.828125 350.886719 C 300.957031 350.664062 302.070312 350.382812 303.175781 350.046875 C 304.277344 349.714844 305.359375 349.328125 306.421875 348.886719 C 307.484375 348.445312 308.527344 347.953125 309.542969 347.410156 C 310.558594 346.867188 311.542969 346.277344 312.5 345.636719 C 313.457031 344.996094 314.382812 344.3125 315.273438 343.582031 C 316.160156 342.851562 317.015625 342.078125 317.828125 341.265625 C 318.640625 340.453125 319.414062 339.597656 320.144531 338.710938 C 320.875 337.820312 321.558594 336.894531 322.199219 335.9375 C 322.839844 334.980469 323.429688 333.996094 323.972656 332.980469 C 324.515625 331.964844 325.007812 330.921875 325.449219 329.859375 C 325.890625 328.796875 326.277344 327.714844 326.609375 326.613281 C 326.945312 325.507812 327.226562 324.394531 327.449219 323.265625 C 327.675781 322.136719 327.84375 320.996094 327.957031 319.851562 C 328.070312 318.707031 328.125 317.558594 328.125 316.40625 L 328.125 210.9375 Z M 23.4375 164.0625 L 23.4375 187.5 L 351.5625 187.5 L 351.5625 164.0625 Z M 93.75 234.375 C 94.519531 234.375 95.28125 234.449219 96.035156 234.601562 C 96.789062 234.75 97.523438 234.972656 98.234375 235.265625 C 98.945312 235.5625 99.621094 235.921875 100.261719 236.351562 C 100.898438 236.777344 101.492188 237.261719 102.035156 237.808594 C 102.582031 238.351562 103.066406 238.941406 103.492188 239.582031 C 103.921875 240.222656 104.28125 240.898438 104.578125 241.609375 C 104.871094 242.320312 105.09375 243.054688 105.242188 243.808594 C 105.394531 244.5625 105.46875 245.324219 105.46875 246.09375 L 105.46875 316.40625 C 105.46875 317.175781 105.394531 317.9375 105.242188 318.691406 C 105.09375 319.445312 104.871094 320.179688 104.578125 320.890625 C 104.28125 321.601562 103.921875 322.277344 103.492188 322.917969 C 103.066406 323.554688 102.582031 324.148438 102.035156 324.691406 C 101.492188 325.238281 100.898438 325.722656 100.261719 326.148438 C 99.621094 326.578125 98.945312 326.9375 98.234375 327.234375 C 97.523438 327.527344 96.789062 327.75 96.035156 327.898438 C 95.28125 328.050781 94.519531 328.125 93.75 328.125 C 92.980469 328.125 92.21875 328.050781 91.464844 327.898438 C 90.710938 327.75 89.976562 327.527344 89.265625 327.234375 C 88.554688 326.9375 87.878906 326.578125 87.238281 326.148438 C 86.597656 325.722656 86.007812 325.238281 85.464844 324.691406 C 84.917969 324.148438 84.433594 323.554688 84.007812 322.917969 C 83.578125 322.277344 83.21875 321.601562 82.921875 320.890625 C 82.628906 320.179688 82.40625 319.445312 82.257812 318.691406 C 82.105469 317.9375 82.03125 317.175781 82.03125 316.40625 L 82.03125 246.09375 C 82.03125 245.324219 82.105469 244.5625 82.257812 243.808594 C 82.40625 243.054688 82.628906 242.320312 82.921875 241.609375 C 83.21875 240.898438 83.578125 240.222656 84.007812 239.582031 C 84.433594 238.945312 84.917969 238.351562 85.464844 237.808594 C 86.007812 237.261719 86.601562 236.777344 87.238281 236.351562 C 87.878906 235.921875 88.554688 235.5625 89.265625 235.265625 C 89.976562 234.972656 90.710938 234.75 91.464844 234.601562 C 92.21875 234.449219 92.980469 234.375 93.75 234.375 Z M 140.625 234.375 C 141.394531 234.375 142.15625 234.449219 142.910156 234.601562 C 143.664062 234.75 144.398438 234.972656 145.109375 235.265625 C 145.820312 235.5625 146.496094 235.921875 147.136719 236.351562 C 147.773438 236.777344 148.367188 237.261719 148.910156 237.808594 C 149.457031 238.351562 149.941406 238.941406 150.367188 239.582031 C 150.796875 240.222656 151.15625 240.898438 151.453125 241.609375 C 151.746094 242.320312 151.96875 243.054688 152.117188 243.808594 C 152.269531 244.5625 152.34375 245.324219 152.34375 246.09375 L 152.34375 316.40625 C 152.34375 317.175781 152.269531 317.9375 152.117188 318.691406 C 151.96875 319.445312 151.746094 320.179688 151.453125 320.890625 C 151.15625 321.601562 150.796875 322.277344 150.367188 322.917969 C 149.941406 323.554688 149.457031 324.148438 148.910156 324.691406 C 148.367188 325.238281 147.773438 325.722656 147.136719 326.148438 C 146.496094 326.578125 145.820312 326.9375 145.109375 327.234375 C 144.398438 327.527344 143.664062 327.75 142.910156 327.898438 C 142.15625 328.050781 141.394531 328.125 140.625 328.125 C 139.855469 328.125 139.09375 328.050781 138.339844 327.898438 C 137.585938 327.75 136.851562 327.527344 136.140625 327.234375 C 135.429688 326.9375 134.753906 326.578125 134.113281 326.148438 C 133.472656 325.722656 132.882812 325.238281 132.339844 324.691406 C 131.792969 324.148438 131.308594 323.554688 130.882812 322.917969 C 130.453125 322.277344 130.09375 321.601562 129.796875 320.890625 C 129.503906 320.179688 129.28125 319.445312 129.132812 318.691406 C 128.980469 317.9375 128.90625 317.175781 128.90625 316.40625 L 128.90625 246.09375 C 128.90625 245.324219 128.980469 244.5625 129.132812 243.808594 C 129.28125 243.054688 129.503906 242.320312 129.796875 241.609375 C 130.09375 240.898438 130.453125 240.222656 130.882812 239.582031 C 131.308594 238.945312 131.792969 238.351562 132.339844 237.808594 C 132.882812 237.261719 133.476562 236.777344 134.113281 236.351562 C 134.753906 235.921875 135.429688 235.5625 136.140625 235.265625 C 136.851562 234.972656 137.585938 234.75 138.339844 234.601562 C 139.09375 234.449219 139.855469 234.375 140.625 234.375 Z M 187.5 234.375 C 188.269531 234.375 189.03125 234.449219 189.785156 234.601562 C 190.539062 234.75 191.273438 234.972656 191.984375 235.265625 C 192.695312 235.5625 193.371094 235.921875 194.011719 236.351562 C 194.648438 236.777344 195.242188 237.261719 195.785156 237.808594 C 196.332031 238.351562 196.816406 238.941406 197.242188 239.582031 C 197.671875 240.222656 198.03125 240.898438 198.328125 241.609375 C 198.621094 242.320312 198.84375 243.054688 198.992188 243.808594 C 199.144531 244.5625 199.21875 245.324219 199.21875 246.09375 L 199.21875 316.40625 C 199.21875 317.175781 199.144531 317.9375 198.992188 318.691406 C 198.84375 319.445312 198.621094 320.179688 198.328125 320.890625 C 198.03125 321.601562 197.671875 322.277344 197.242188 322.917969 C 196.816406 323.554688 196.332031 324.148438 195.785156 324.691406 C 195.242188 325.238281 194.648438 325.722656 194.011719 326.148438 C 193.371094 326.578125 192.695312 326.9375 191.984375 327.234375 C 191.273438 327.527344 190.539062 327.75 189.785156 327.898438 C 189.03125 328.050781 188.269531 328.125 187.5 328.125 C 186.730469 328.125 185.96875 328.050781 185.214844 327.898438 C 184.460938 327.75 183.726562 327.527344 183.015625 327.234375 C 182.304688 326.9375 181.628906 326.578125 180.988281 326.148438 C 180.351562 325.722656 179.757812 325.238281 179.214844 324.691406 C 178.667969 324.148438 178.183594 323.554688 177.757812 322.917969 C 177.328125 322.277344 176.96875 321.601562 176.671875 320.890625 C 176.378906 320.179688 176.15625 319.445312 176.007812 318.691406 C 175.855469 317.9375 175.78125 317.175781 175.78125 316.40625 L 175.78125 246.09375 C 175.78125 245.324219 175.855469 244.5625 176.007812 243.808594 C 176.15625 243.054688 176.378906 242.320312 176.671875 241.609375 C 176.96875 240.898438 177.328125 240.222656 177.757812 239.582031 C 178.183594 238.945312 178.667969 238.351562 179.214844 237.808594 C 179.757812 237.261719 180.351562 236.777344 180.988281 236.351562 C 181.628906 235.921875 182.304688 235.5625 183.015625 235.265625 C 183.726562 234.972656 184.460938 234.75 185.214844 234.601562 C 185.96875 234.449219 186.730469 234.375 187.5 234.375 Z M 234.375 234.375 C 235.144531 234.375 235.90625 234.449219 236.660156 234.601562 C 237.414062 234.75 238.148438 234.972656 238.859375 235.265625 C 239.570312 235.5625 240.246094 235.921875 240.886719 236.351562 C 241.523438 236.777344 242.117188 237.261719 242.660156 237.808594 C 243.207031 238.351562 243.691406 238.941406 244.117188 239.582031 C 244.546875 240.222656 244.90625 240.898438 245.203125 241.609375 C 245.496094 242.320312 245.71875 243.054688 245.867188 243.808594 C 246.019531 244.5625 246.09375 245.324219 246.09375 246.09375 L 246.09375 316.40625 C 246.09375 317.175781 246.019531 317.9375 245.867188 318.691406 C 245.71875 319.445312 245.496094 320.179688 245.203125 320.890625 C 244.90625 321.601562 244.546875 322.277344 244.117188 322.917969 C 243.691406 323.554688 243.207031 324.148438 242.660156 324.691406 C 242.117188 325.238281 241.523438 325.722656 240.886719 326.148438 C 240.246094 326.578125 239.570312 326.9375 238.859375 327.234375 C 238.148438 327.527344 237.414062 327.75 236.660156 327.898438 C 235.90625 328.050781 235.144531 328.125 234.375 328.125 C 233.605469 328.125 232.84375 328.050781 232.089844 327.898438 C 231.335938 327.75 230.601562 327.527344 229.890625 327.234375 C 229.179688 326.9375 228.503906 326.578125 227.863281 326.148438 C 227.222656 325.722656 226.632812 325.238281 226.089844 324.691406 C 225.542969 324.148438 225.058594 323.554688 224.632812 322.917969 C 224.203125 322.277344 223.84375 321.601562 223.546875 320.890625 C 223.253906 320.179688 223.03125 319.445312 222.882812 318.691406 C 222.730469 317.9375 222.65625 317.175781 222.65625 316.40625 L 222.65625 246.09375 C 222.65625 245.324219 222.730469 244.5625 222.882812 243.808594 C 223.03125 243.054688 223.253906 242.320312 223.546875 241.609375 C 223.84375 240.898438 224.203125 240.222656 224.632812 239.582031 C 225.058594 238.945312 225.542969 238.351562 226.089844 237.808594 C 226.632812 237.261719 227.222656 236.777344 227.863281 236.351562 C 228.503906 235.921875 229.179688 235.5625 229.890625 235.265625 C 230.601562 234.972656 231.335938 234.75 232.089844 234.601562 C 232.84375 234.449219 233.605469 234.375 234.375 234.375 Z M 281.25 234.375 C 282.019531 234.375 282.78125 234.449219 283.535156 234.601562 C 284.289062 234.75 285.023438 234.972656 285.734375 235.265625 C 286.445312 235.5625 287.121094 235.921875 287.761719 236.351562 C 288.398438 236.777344 288.992188 237.261719 289.535156 237.808594 C 290.082031 238.351562 290.566406 238.941406 290.992188 239.582031 C 291.421875 240.222656 291.78125 240.898438 292.078125 241.609375 C 292.371094 242.320312 292.59375 243.054688 292.742188 243.808594 C 292.894531 244.5625 292.96875 245.324219 292.96875 246.09375 L 292.96875 316.40625 C 292.96875 317.175781 292.894531 317.9375 292.742188 318.691406 C 292.59375 319.445312 292.371094 320.179688 292.078125 320.890625 C 291.78125 321.601562 291.421875 322.277344 290.992188 322.917969 C 290.566406 323.554688 290.082031 324.148438 289.535156 324.691406 C 288.992188 325.238281 288.398438 325.722656 287.761719 326.148438 C 287.121094 326.578125 286.445312 326.9375 285.734375 327.234375 C 285.023438 327.527344 284.289062 327.75 283.535156 327.898438 C 282.78125 328.050781 282.019531 328.125 281.25 328.125 C 280.480469 328.125 279.71875 328.050781 278.964844 327.898438 C 278.210938 327.75 277.476562 327.527344 276.765625 327.234375 C 276.054688 326.9375 275.378906 326.578125 274.738281 326.148438 C 274.097656 325.722656 273.507812 325.238281 272.964844 324.691406 C 272.417969 324.148438 271.933594 323.554688 271.507812 322.917969 C 271.078125 322.277344 270.71875 321.601562 270.421875 320.890625 C 270.128906 320.179688 269.90625 319.445312 269.757812 318.691406 C 269.605469 317.9375 269.53125 317.175781 269.53125 316.40625 L 269.53125 246.09375 C 269.53125 245.324219 269.605469 244.5625 269.757812 243.808594 C 269.90625 243.054688 270.128906 242.320312 270.421875 241.609375 C 270.71875 240.898438 271.078125 240.222656 271.507812 239.582031 C 271.933594 238.945312 272.417969 238.351562 272.964844 237.808594 C 273.507812 237.261719 274.097656 236.777344 274.738281 236.351562 C 275.378906 235.921875 276.054688 235.5625 276.765625 235.265625 C 277.476562 234.972656 278.210938 234.75 278.964844 234.601562 C 279.71875 234.449219 280.480469 234.375 281.25 234.375 Z M 281.25 234.375 "/>
</g>
</svg>
