<?xml version="1.0" encoding="UTF-8"?>
<svg xmlns="http://www.w3.org/2000/svg" xmlns:xlink="http://www.w3.org/1999/xlink" width="375pt" height="374.999991pt" viewBox="0 0 375 374.999991" version="1.2">
<g id="surface1">
<path style=" stroke:none;fill-rule:nonzero;fill:rgb(14.509583%,39.219666%,65.489197%);fill-opacity:1;" d="M 118.851562 29.132812 C 119.246094 28.472656 119.703125 27.855469 120.21875 27.285156 C 120.738281 26.714844 121.304688 26.203125 121.921875 25.742188 C 122.539062 25.285156 123.195312 24.890625 123.890625 24.5625 C 124.589844 24.234375 125.308594 23.972656 126.054688 23.789062 C 126.800781 23.601562 127.558594 23.488281 128.328125 23.449219 C 129.097656 23.410156 129.863281 23.449219 130.625 23.5625 C 131.382812 23.675781 132.128906 23.859375 132.851562 24.121094 C 133.578125 24.378906 134.269531 24.707031 134.929688 25.101562 C 135.589844 25.496094 136.207031 25.953125 136.777344 26.46875 C 137.347656 26.988281 137.859375 27.554688 138.320312 28.171875 C 138.777344 28.789062 139.171875 29.445312 139.5 30.140625 C 139.828125 30.839844 140.089844 31.558594 140.273438 32.304688 C 140.460938 33.050781 140.574219 33.808594 140.613281 34.578125 C 140.652344 35.347656 140.613281 36.113281 140.5 36.875 C 140.386719 37.632812 140.203125 38.378906 139.941406 39.101562 C 139.683594 39.828125 139.355469 40.519531 138.960938 41.179688 L 79.289062 140.625 L 295.710938 140.625 L 236.015625 41.179688 C 235.621094 40.519531 235.292969 39.828125 235.035156 39.101562 C 234.773438 38.378906 234.589844 37.632812 234.476562 36.875 C 234.363281 36.113281 234.324219 35.347656 234.363281 34.578125 C 234.402344 33.808594 234.515625 33.050781 234.703125 32.304688 C 234.886719 31.558594 235.148438 30.839844 235.476562 30.140625 C 235.804688 29.445312 236.199219 28.789062 236.65625 28.171875 C 237.117188 27.554688 237.628906 26.988281 238.199219 26.46875 C 238.769531 25.953125 239.386719 25.496094 240.046875 25.101562 C 240.707031 24.707031 241.398438 24.378906 242.125 24.121094 C 242.847656 23.859375 243.59375 23.675781 244.351562 23.5625 C 245.113281 23.449219 245.878906 23.410156 246.648438 23.449219 C 247.417969 23.488281 248.175781 23.601562 248.921875 23.789062 C 249.667969 23.972656 250.386719 24.234375 251.085938 24.5625 C 251.78125 24.890625 252.4375 25.285156 253.054688 25.742188 C 253.671875 26.203125 254.238281 26.714844 254.757812 27.285156 C 255.273438 27.855469 255.730469 28.472656 256.125 29.132812 L 323.039062 140.625 L 363.28125 140.625 C 364.050781 140.625 364.8125 140.699219 365.566406 140.851562 C 366.320312 141 367.054688 141.222656 367.765625 141.515625 C 368.476562 141.8125 369.152344 142.171875 369.792969 142.601562 C 370.429688 143.027344 371.023438 143.511719 371.566406 144.058594 C 372.113281 144.601562 372.597656 145.195312 373.023438 145.832031 C 373.453125 146.472656 373.8125 147.148438 374.109375 147.859375 C 374.402344 148.570312 374.625 149.304688 374.773438 150.058594 C 374.925781 150.8125 375 151.574219 375 152.34375 L 375 199.21875 C 375 199.988281 374.925781 200.75 374.773438 201.503906 C 374.625 202.257812 374.402344 202.992188 374.109375 203.703125 C 373.8125 204.414062 373.453125 205.089844 373.023438 205.730469 C 372.597656 206.367188 372.113281 206.960938 371.566406 207.503906 C 371.023438 208.050781 370.429688 208.535156 369.792969 208.960938 C 369.152344 209.390625 368.476562 209.75 367.765625 210.046875 C 367.054688 210.339844 366.320312 210.5625 365.566406 210.710938 C 364.8125 210.863281 364.050781 210.9375 363.28125 210.9375 L 351.5625 210.9375 L 351.5625 328.125 C 351.5625 329.660156 351.488281 331.191406 351.335938 332.71875 C 351.1875 334.246094 350.960938 335.765625 350.660156 337.269531 C 350.363281 338.777344 349.988281 340.261719 349.542969 341.730469 C 349.097656 343.199219 348.582031 344.644531 347.996094 346.0625 C 347.40625 347.480469 346.75 348.867188 346.027344 350.222656 C 345.304688 351.574219 344.515625 352.890625 343.664062 354.167969 C 342.808594 355.445312 341.894531 356.675781 340.921875 357.863281 C 339.949219 359.050781 338.917969 360.183594 337.832031 361.269531 C 336.746094 362.355469 335.613281 363.386719 334.425781 364.359375 C 333.238281 365.332031 332.007812 366.246094 330.730469 367.101562 C 329.453125 367.953125 328.136719 368.742188 326.785156 369.464844 C 325.429688 370.1875 324.042969 370.84375 322.625 371.433594 C 321.207031 372.019531 319.761719 372.535156 318.292969 372.980469 C 316.824219 373.425781 315.339844 373.800781 313.832031 374.097656 C 312.328125 374.398438 310.808594 374.625 309.28125 374.773438 C 307.753906 374.925781 306.222656 375 304.6875 375 L 70.3125 375 C 68.777344 375 67.246094 374.925781 65.71875 374.773438 C 64.191406 374.625 62.671875 374.398438 61.167969 374.097656 C 59.660156 373.800781 58.175781 373.425781 56.707031 372.980469 C 55.234375 372.535156 53.792969 372.019531 52.375 371.433594 C 50.957031 370.84375 49.570312 370.1875 48.214844 369.464844 C 46.863281 368.742188 45.546875 367.953125 44.269531 367.101562 C 42.992188 366.246094 41.761719 365.332031 40.574219 364.359375 C 39.386719 363.386719 38.253906 362.355469 37.167969 361.269531 C 36.082031 360.183594 35.050781 359.050781 34.078125 357.863281 C 33.105469 356.675781 32.191406 355.445312 31.335938 354.167969 C 30.484375 352.890625 29.695312 351.574219 28.972656 350.222656 C 28.25 348.867188 27.59375 347.480469 27.003906 346.0625 C 26.417969 344.644531 25.902344 343.199219 25.457031 341.730469 C 25.011719 340.261719 24.636719 338.777344 24.339844 337.269531 C 24.039062 335.765625 23.8125 334.246094 23.664062 332.71875 C 23.511719 331.191406 23.4375 329.660156 23.4375 328.125 L 23.4375 210.9375 L 11.71875 210.9375 C 10.949219 210.9375 10.1875 210.863281 9.433594 210.710938 C 8.679688 210.5625 7.945312 210.339844 7.234375 210.046875 C 6.523438 209.75 5.847656 209.390625 5.207031 208.960938 C 4.570312 208.535156 3.976562 208.050781 3.433594 207.503906 C 2.886719 206.960938 2.402344 206.367188 1.976562 205.730469 C 1.546875 205.089844 1.1875 204.414062 0.890625 203.703125 C 0.597656 202.992188 0.375 202.257812 0.226562 201.503906 C 0.0742188 200.75 0 199.988281 0 199.21875 L 0 152.34375 C 0 151.574219 0.0742188 150.8125 0.226562 150.058594 C 0.375 149.304688 0.597656 148.570312 0.890625 147.859375 C 1.1875 147.148438 1.546875 146.472656 1.976562 145.832031 C 2.402344 145.195312 2.886719 144.601562 3.433594 144.058594 C 3.976562 143.511719 4.570312 143.027344 5.207031 142.601562 C 5.847656 142.171875 6.523438 141.8125 7.234375 141.515625 C 7.945312 141.222656 8.679688 141 9.433594 140.851562 C 10.1875 140.699219 10.949219 140.625 11.71875 140.625 L 51.960938 140.625 L 118.828125 29.132812 Z M 82.03125 246.09375 C 82.03125 245.324219 81.957031 244.5625 81.804688 243.808594 C 81.65625 243.054688 81.433594 242.320312 81.140625 241.609375 C 80.84375 240.898438 80.484375 240.222656 80.054688 239.582031 C 79.628906 238.941406 79.144531 238.351562 78.597656 237.808594 C 78.054688 237.261719 77.460938 236.777344 76.824219 236.351562 C 76.183594 235.921875 75.507812 235.5625 74.796875 235.265625 C 74.085938 234.972656 73.351562 234.75 72.597656 234.601562 C 71.84375 234.449219 71.082031 234.375 70.3125 234.375 C 69.542969 234.375 68.78125 234.449219 68.027344 234.601562 C 67.273438 234.75 66.539062 234.972656 65.828125 235.265625 C 65.117188 235.5625 64.441406 235.921875 63.800781 236.351562 C 63.164062 236.777344 62.570312 237.261719 62.027344 237.808594 C 61.480469 238.351562 60.996094 238.941406 60.570312 239.582031 C 60.140625 240.222656 59.78125 240.898438 59.484375 241.609375 C 59.191406 242.320312 58.96875 243.054688 58.820312 243.808594 C 58.667969 244.5625 58.59375 245.324219 58.59375 246.09375 L 58.59375 316.40625 C 58.59375 317.175781 58.667969 317.9375 58.820312 318.691406 C 58.96875 319.445312 59.191406 320.179688 59.484375 320.890625 C 59.78125 321.601562 60.140625 322.277344 60.570312 322.917969 C 60.996094 323.554688 61.480469 324.148438 62.027344 324.691406 C 62.570312 325.238281 63.164062 325.722656 63.800781 326.148438 C 64.441406 326.578125 65.117188 326.9375 65.828125 327.234375 C 66.539062 327.527344 67.273438 327.75 68.027344 327.898438 C 68.78125 328.050781 69.542969 328.125 70.3125 328.125 C 71.082031 328.125 71.84375 328.050781 72.597656 327.898438 C 73.351562 327.75 74.085938 327.527344 74.796875 327.234375 C 75.507812 326.9375 76.183594 326.578125 76.824219 326.148438 C 77.460938 325.722656 78.054688 325.238281 78.597656 324.691406 C 79.144531 324.148438 79.628906 323.554688 80.054688 322.917969 C 80.484375 322.277344 80.84375 321.601562 81.140625 320.890625 C 81.433594 320.179688 81.65625 319.445312 81.804688 318.691406 C 81.957031 317.9375 82.03125 317.175781 82.03125 316.40625 Z M 140.625 246.09375 C 140.625 245.324219 140.550781 244.5625 140.398438 243.808594 C 140.25 243.054688 140.027344 242.320312 139.734375 241.609375 C 139.4375 240.898438 139.078125 240.222656 138.648438 239.582031 C 138.222656 238.941406 137.738281 238.351562 137.191406 237.808594 C 136.648438 237.261719 136.054688 236.777344 135.417969 236.351562 C 134.777344 235.921875 134.101562 235.5625 133.390625 235.265625 C 132.679688 234.972656 131.945312 234.75 131.191406 234.601562 C 130.4375 234.449219 129.675781 234.375 128.90625 234.375 C 128.136719 234.375 127.375 234.449219 126.621094 234.601562 C 125.867188 234.75 125.132812 234.972656 124.421875 235.265625 C 123.710938 235.5625 123.035156 235.921875 122.394531 236.351562 C 121.753906 236.777344 121.164062 237.261719 120.621094 237.808594 C 120.074219 238.351562 119.589844 238.941406 119.164062 239.582031 C 118.734375 240.222656 118.375 240.898438 118.078125 241.609375 C 117.785156 242.320312 117.5625 243.054688 117.414062 243.808594 C 117.261719 244.5625 117.1875 245.324219 117.1875 246.09375 L 117.1875 316.40625 C 117.1875 317.175781 117.261719 317.9375 117.414062 318.691406 C 117.5625 319.445312 117.785156 320.179688 118.078125 320.890625 C 118.375 321.601562 118.734375 322.277344 119.164062 322.917969 C 119.589844 323.554688 120.074219 324.148438 120.621094 324.691406 C 121.164062 325.238281 121.753906 325.722656 122.394531 326.148438 C 123.035156 326.578125 123.710938 326.9375 124.421875 327.234375 C 125.132812 327.527344 125.867188 327.75 126.621094 327.898438 C 127.375 328.050781 128.136719 328.125 128.90625 328.125 C 129.675781 328.125 130.4375 328.050781 131.191406 327.898438 C 131.945312 327.75 132.679688 327.527344 133.390625 327.234375 C 134.101562 326.9375 134.777344 326.578125 135.417969 326.148438 C 136.054688 325.722656 136.648438 325.238281 137.191406 324.691406 C 137.738281 324.148438 138.222656 323.554688 138.648438 322.917969 C 139.078125 322.277344 139.4375 321.601562 139.734375 320.890625 C 140.027344 320.179688 140.25 319.445312 140.398438 318.691406 C 140.550781 317.9375 140.625 317.175781 140.625 316.40625 Z M 199.21875 246.09375 C 199.21875 245.324219 199.144531 244.5625 198.992188 243.808594 C 198.84375 243.054688 198.621094 242.320312 198.328125 241.609375 C 198.03125 240.898438 197.671875 240.222656 197.242188 239.582031 C 196.816406 238.941406 196.332031 238.351562 195.785156 237.808594 C 195.242188 237.261719 194.648438 236.777344 194.011719 236.351562 C 193.371094 235.921875 192.695312 235.5625 191.984375 235.265625 C 191.273438 234.972656 190.539062 234.75 189.785156 234.601562 C 189.03125 234.449219 188.269531 234.375 187.5 234.375 C 186.730469 234.375 185.96875 234.449219 185.214844 234.601562 C 184.460938 234.75 183.726562 234.972656 183.015625 235.265625 C 182.304688 235.5625 181.628906 235.921875 180.988281 236.351562 C 180.351562 236.777344 179.757812 237.261719 179.214844 237.808594 C 178.667969 238.351562 178.183594 238.941406 177.757812 239.582031 C 177.328125 240.222656 176.96875 240.898438 176.671875 241.609375 C 176.378906 242.320312 176.15625 243.054688 176.007812 243.808594 C 175.855469 244.5625 175.78125 245.324219 175.78125 246.09375 L 175.78125 316.40625 C 175.78125 317.175781 175.855469 317.9375 176.007812 318.691406 C 176.15625 319.445312 176.378906 320.179688 176.671875 320.890625 C 176.96875 321.601562 177.328125 322.277344 177.757812 322.917969 C 178.183594 323.554688 178.667969 324.148438 179.214844 324.691406 C 179.757812 325.238281 180.351562 325.722656 180.988281 326.148438 C 181.628906 326.578125 182.304688 326.9375 183.015625 327.234375 C 183.726562 327.527344 184.460938 327.75 185.214844 327.898438 C 185.96875 328.050781 186.730469 328.125 187.5 328.125 C 188.269531 328.125 189.03125 328.050781 189.785156 327.898438 C 190.539062 327.75 191.273438 327.527344 191.984375 327.234375 C 192.695312 326.9375 193.371094 326.578125 194.011719 326.148438 C 194.648438 325.722656 195.242188 325.238281 195.785156 324.691406 C 196.332031 324.148438 196.816406 323.554688 197.242188 322.917969 C 197.671875 322.277344 198.03125 321.601562 198.328125 320.890625 C 198.621094 320.179688 198.84375 319.445312 198.992188 318.691406 C 199.144531 317.9375 199.21875 317.175781 199.21875 316.40625 Z M 257.8125 246.09375 C 257.8125 245.324219 257.738281 244.5625 257.585938 243.808594 C 257.4375 243.054688 257.214844 242.320312 256.921875 241.609375 C 256.625 240.898438 256.265625 240.222656 255.835938 239.582031 C 255.410156 238.941406 254.925781 238.351562 254.378906 237.808594 C 253.835938 237.261719 253.242188 236.777344 252.605469 236.351562 C 251.964844 235.921875 251.289062 235.5625 250.578125 235.265625 C 249.867188 234.972656 249.132812 234.75 248.378906 234.601562 C 247.625 234.449219 246.863281 234.375 246.09375 234.375 C 245.324219 234.375 244.5625 234.449219 243.808594 234.601562 C 243.054688 234.75 242.320312 234.972656 241.609375 235.265625 C 240.898438 235.5625 240.222656 235.921875 239.582031 236.351562 C 238.941406 236.777344 238.351562 237.261719 237.808594 237.808594 C 237.261719 238.351562 236.777344 238.941406 236.351562 239.582031 C 235.921875 240.222656 235.5625 240.898438 235.265625 241.609375 C 234.972656 242.320312 234.75 243.054688 234.601562 243.808594 C 234.449219 244.5625 234.375 245.324219 234.375 246.09375 L 234.375 316.40625 C 234.375 317.175781 234.449219 317.9375 234.601562 318.691406 C 234.75 319.445312 234.972656 320.179688 235.265625 320.890625 C 235.5625 321.601562 235.921875 322.277344 236.351562 322.917969 C 236.777344 323.554688 237.261719 324.148438 237.808594 324.691406 C 238.351562 325.238281 238.941406 325.722656 239.582031 326.148438 C 240.222656 326.578125 240.898438 326.9375 241.609375 327.234375 C 242.320312 327.527344 243.054688 327.75 243.808594 327.898438 C 244.5625 328.050781 245.324219 328.125 246.09375 328.125 C 246.863281 328.125 247.625 328.050781 248.378906 327.898438 C 249.132812 327.75 249.867188 327.527344 250.578125 327.234375 C 251.289062 326.9375 251.964844 326.578125 252.605469 326.148438 C 253.242188 325.722656 253.835938 325.238281 254.378906 324.691406 C 254.925781 324.148438 255.410156 323.554688 255.835938 322.917969 C 256.265625 322.277344 256.625 321.601562 256.921875 320.890625 C 257.214844 320.179688 257.4375 319.445312 257.585938 318.691406 C 257.738281 317.9375 257.8125 317.175781 257.8125 316.40625 Z M 316.40625 246.09375 C 316.40625 245.324219 316.332031 244.5625 316.179688 243.808594 C 316.03125 243.054688 315.808594 242.320312 315.515625 241.609375 C 315.21875 240.898438 314.859375 240.222656 314.429688 239.582031 C 314.003906 238.941406 313.519531 238.351562 312.972656 237.808594 C 312.429688 237.261719 311.835938 236.777344 311.199219 236.351562 C 310.558594 235.921875 309.882812 235.5625 309.171875 235.265625 C 308.460938 234.972656 307.726562 234.75 306.972656 234.601562 C 306.21875 234.449219 305.457031 234.375 304.6875 234.375 C 303.917969 234.375 303.15625 234.449219 302.402344 234.601562 C 301.648438 234.75 300.914062 234.972656 300.203125 235.265625 C 299.492188 235.5625 298.816406 235.921875 298.175781 236.351562 C 297.535156 236.777344 296.945312 237.261719 296.402344 237.808594 C 295.855469 238.351562 295.371094 238.941406 294.945312 239.582031 C 294.515625 240.222656 294.15625 240.898438 293.859375 241.609375 C 293.566406 242.320312 293.34375 243.054688 293.195312 243.808594 C 293.042969 244.5625 292.96875 245.324219 292.96875 246.09375 L 292.96875 316.40625 C 292.96875 317.175781 293.042969 317.9375 293.195312 318.691406 C 293.34375 319.445312 293.566406 320.179688 293.859375 320.890625 C 294.15625 321.601562 294.515625 322.277344 294.945312 322.917969 C 295.371094 323.554688 295.855469 324.148438 296.402344 324.691406 C 296.945312 325.238281 297.535156 325.722656 298.175781 326.148438 C 298.816406 326.578125 299.492188 326.9375 300.203125 327.234375 C 300.914062 327.527344 301.648438 327.75 302.402344 327.898438 C 303.15625 328.050781 303.917969 328.125 304.6875 328.125 C 305.457031 328.125 306.21875 328.050781 306.972656 327.898438 C 307.726562 327.75 308.460938 327.527344 309.171875 327.234375 C 309.882812 326.9375 310.558594 326.578125 311.199219 326.148438 C 311.835938 325.722656 312.429688 325.238281 312.972656 324.691406 C 313.519531 324.148438 314.003906 323.554688 314.429688 322.917969 C 314.859375 322.277344 315.21875 321.601562 315.515625 320.890625 C 315.808594 320.179688 316.03125 319.445312 316.179688 318.691406 C 316.332031 317.9375 316.40625 317.175781 316.40625 316.40625 Z M 316.40625 246.09375 "/>
</g>
</svg>
