<?xml version="1.0" encoding="UTF-8"?>
<svg xmlns="http://www.w3.org/2000/svg" xmlns:xlink="http://www.w3.org/1999/xlink" width="375pt" height="374.999991pt" viewBox="0 0 375 374.999991" version="1.2">
<g id="surface1">
<path style=" stroke:none;fill-rule:nonzero;fill:rgb(14.509583%,39.219666%,65.489197%);fill-opacity:1;" d="M 58.945312 70.734375 C 58.171875 70.734375 57.40625 70.808594 56.644531 70.960938 C 55.886719 71.113281 55.148438 71.335938 54.433594 71.632812 C 53.71875 71.929688 53.039062 72.292969 52.394531 72.722656 C 51.753906 73.152344 51.15625 73.640625 50.609375 74.1875 C 50.0625 74.734375 49.574219 75.332031 49.144531 75.972656 C 48.714844 76.617188 48.351562 77.296875 48.054688 78.011719 C 47.757812 78.726562 47.535156 79.464844 47.382812 80.222656 C 47.230469 80.984375 47.15625 81.75 47.15625 82.523438 C 47.15625 83.296875 47.230469 84.0625 47.382812 84.824219 C 47.535156 85.582031 47.757812 86.320312 48.054688 87.035156 C 48.351562 87.75 48.714844 88.429688 49.144531 89.074219 C 49.574219 89.714844 50.0625 90.3125 50.609375 90.859375 C 51.15625 91.40625 51.753906 91.894531 52.394531 92.324219 C 53.039062 92.753906 53.71875 93.117188 54.433594 93.414062 C 55.148438 93.710938 55.886719 93.933594 56.644531 94.085938 C 57.40625 94.238281 58.171875 94.3125 58.945312 94.3125 L 318.304688 94.3125 C 319.078125 94.3125 319.84375 94.238281 320.605469 94.085938 C 321.363281 93.933594 322.101562 93.710938 322.816406 93.414062 C 323.53125 93.117188 324.210938 92.753906 324.855469 92.324219 C 325.496094 91.894531 326.09375 91.40625 326.640625 90.859375 C 327.1875 90.3125 327.675781 89.714844 328.105469 89.074219 C 328.535156 88.429688 328.898438 87.75 329.195312 87.035156 C 329.492188 86.320312 329.714844 85.582031 329.867188 84.824219 C 330.019531 84.0625 330.09375 83.296875 330.09375 82.523438 C 330.09375 81.75 330.019531 80.984375 329.867188 80.222656 C 329.714844 79.464844 329.492188 78.726562 329.195312 78.011719 C 328.898438 77.296875 328.535156 76.617188 328.105469 75.972656 C 327.675781 75.332031 327.1875 74.734375 326.640625 74.1875 C 326.09375 73.640625 325.496094 73.152344 324.855469 72.722656 C 324.210938 72.292969 323.53125 71.929688 322.816406 71.632812 C 322.101562 71.335938 321.363281 71.113281 320.605469 70.960938 C 319.84375 70.808594 319.078125 70.734375 318.304688 70.734375 Z M 58.945312 141.46875 C 58.171875 141.46875 57.40625 141.542969 56.644531 141.695312 C 55.886719 141.847656 55.148438 142.070312 54.433594 142.367188 C 53.71875 142.664062 53.039062 143.027344 52.394531 143.457031 C 51.753906 143.886719 51.15625 144.375 50.609375 144.921875 C 50.0625 145.46875 49.574219 146.066406 49.144531 146.707031 C 48.714844 147.351562 48.351562 148.03125 48.054688 148.746094 C 47.757812 149.460938 47.535156 150.199219 47.382812 150.957031 C 47.230469 151.71875 47.15625 152.484375 47.15625 153.257812 C 47.15625 154.03125 47.230469 154.796875 47.382812 155.558594 C 47.535156 156.316406 47.757812 157.054688 48.054688 157.769531 C 48.351562 158.484375 48.714844 159.164062 49.144531 159.808594 C 49.574219 160.449219 50.0625 161.046875 50.609375 161.59375 C 51.15625 162.140625 51.753906 162.628906 52.394531 163.058594 C 53.039062 163.488281 53.71875 163.851562 54.433594 164.148438 C 55.148438 164.445312 55.886719 164.667969 56.644531 164.820312 C 57.40625 164.972656 58.171875 165.046875 58.945312 165.046875 L 200.414062 165.046875 C 201.1875 165.046875 201.953125 164.972656 202.714844 164.820312 C 203.472656 164.667969 204.210938 164.445312 204.925781 164.148438 C 205.640625 163.851562 206.320312 163.488281 206.964844 163.058594 C 207.605469 162.628906 208.203125 162.140625 208.75 161.59375 C 209.296875 161.046875 209.785156 160.449219 210.214844 159.808594 C 210.644531 159.164062 211.007812 158.484375 211.304688 157.769531 C 211.601562 157.054688 211.824219 156.316406 211.976562 155.558594 C 212.128906 154.796875 212.203125 154.03125 212.203125 153.257812 C 212.203125 152.484375 212.128906 151.71875 211.976562 150.957031 C 211.824219 150.199219 211.601562 149.460938 211.304688 148.746094 C 211.007812 148.03125 210.644531 147.351562 210.214844 146.707031 C 209.785156 146.066406 209.296875 145.46875 208.75 144.921875 C 208.203125 144.375 207.605469 143.886719 206.964844 143.457031 C 206.320312 143.027344 205.640625 142.664062 204.925781 142.367188 C 204.210938 142.070312 203.472656 141.847656 202.714844 141.695312 C 201.953125 141.542969 201.1875 141.46875 200.414062 141.46875 Z M 58.945312 212.203125 C 58.171875 212.203125 57.40625 212.277344 56.644531 212.429688 C 55.886719 212.582031 55.148438 212.804688 54.433594 213.101562 C 53.71875 213.398438 53.039062 213.761719 52.394531 214.191406 C 51.753906 214.621094 51.15625 215.109375 50.609375 215.65625 C 50.0625 216.203125 49.574219 216.800781 49.144531 217.441406 C 48.714844 218.085938 48.351562 218.765625 48.054688 219.480469 C 47.757812 220.195312 47.535156 220.933594 47.382812 221.691406 C 47.230469 222.453125 47.15625 223.21875 47.15625 223.992188 C 47.15625 224.765625 47.230469 225.53125 47.382812 226.292969 C 47.535156 227.050781 47.757812 227.789062 48.054688 228.503906 C 48.351562 229.21875 48.714844 229.898438 49.144531 230.542969 C 49.574219 231.183594 50.0625 231.78125 50.609375 232.328125 C 51.15625 232.875 51.753906 233.363281 52.394531 233.792969 C 53.039062 234.222656 53.71875 234.585938 54.433594 234.882812 C 55.148438 235.179688 55.886719 235.402344 56.644531 235.554688 C 57.40625 235.707031 58.171875 235.78125 58.945312 235.78125 L 200.414062 235.78125 C 201.1875 235.78125 201.953125 235.707031 202.714844 235.554688 C 203.472656 235.402344 204.210938 235.179688 204.925781 234.882812 C 205.640625 234.585938 206.320312 234.222656 206.964844 233.792969 C 207.605469 233.363281 208.203125 232.875 208.75 232.328125 C 209.296875 231.78125 209.785156 231.183594 210.214844 230.542969 C 210.644531 229.898438 211.007812 229.21875 211.304688 228.503906 C 211.601562 227.789062 211.824219 227.050781 211.976562 226.292969 C 212.128906 225.53125 212.203125 224.765625 212.203125 223.992188 C 212.203125 223.21875 212.128906 222.453125 211.976562 221.691406 C 211.824219 220.933594 211.601562 220.195312 211.304688 219.480469 C 211.007812 218.765625 210.644531 218.085938 210.214844 217.441406 C 209.785156 216.800781 209.296875 216.203125 208.75 215.65625 C 208.203125 215.109375 207.605469 214.621094 206.964844 214.191406 C 206.320312 213.761719 205.640625 213.398438 204.925781 213.101562 C 204.210938 212.804688 203.472656 212.582031 202.714844 212.429688 C 201.953125 212.277344 201.1875 212.203125 200.414062 212.203125 Z M 58.945312 282.9375 C 58.171875 282.9375 57.40625 283.011719 56.644531 283.164062 C 55.886719 283.316406 55.148438 283.539062 54.433594 283.835938 C 53.71875 284.132812 53.039062 284.496094 52.394531 284.925781 C 51.753906 285.355469 51.15625 285.84375 50.609375 286.390625 C 50.0625 286.9375 49.574219 287.535156 49.144531 288.175781 C 48.714844 288.820312 48.351562 289.5 48.054688 290.214844 C 47.757812 290.929688 47.535156 291.667969 47.382812 292.425781 C 47.230469 293.1875 47.15625 293.953125 47.15625 294.726562 C 47.15625 295.5 47.230469 296.265625 47.382812 297.027344 C 47.535156 297.785156 47.757812 298.523438 48.054688 299.238281 C 48.351562 299.953125 48.714844 300.632812 49.144531 301.277344 C 49.574219 301.917969 50.0625 302.515625 50.609375 303.0625 C 51.15625 303.609375 51.753906 304.097656 52.394531 304.527344 C 53.039062 304.957031 53.71875 305.320312 54.433594 305.617188 C 55.148438 305.914062 55.886719 306.136719 56.644531 306.289062 C 57.40625 306.441406 58.171875 306.515625 58.945312 306.515625 L 318.304688 306.515625 C 319.078125 306.515625 319.84375 306.441406 320.605469 306.289062 C 321.363281 306.136719 322.101562 305.914062 322.816406 305.617188 C 323.53125 305.320312 324.210938 304.957031 324.855469 304.527344 C 325.496094 304.097656 326.09375 303.609375 326.640625 303.0625 C 327.1875 302.515625 327.675781 301.917969 328.105469 301.277344 C 328.535156 300.632812 328.898438 299.953125 329.195312 299.238281 C 329.492188 298.523438 329.714844 297.785156 329.867188 297.027344 C 330.019531 296.265625 330.09375 295.5 330.09375 294.726562 C 330.09375 293.953125 330.019531 293.1875 329.867188 292.425781 C 329.714844 291.667969 329.492188 290.929688 329.195312 290.214844 C 328.898438 289.5 328.535156 288.820312 328.105469 288.175781 C 327.675781 287.535156 327.1875 286.9375 326.640625 286.390625 C 326.09375 285.84375 325.496094 285.355469 324.855469 284.925781 C 324.210938 284.496094 323.53125 284.132812 322.816406 283.835938 C 322.101562 283.539062 321.363281 283.316406 320.605469 283.164062 C 319.84375 283.011719 319.078125 282.9375 318.304688 282.9375 Z M 297.390625 156.253906 C 293.980469 153.953125 290.480469 151.789062 286.898438 149.769531 L 291.851562 141.46875 C 294.726562 143.214844 298.261719 145.476562 302.507812 148.234375 C 306.75 150.996094 310.757812 154.367188 314.53125 158.328125 C 318.210938 162.195312 321.347656 166.601562 323.917969 171.578125 C 326.511719 176.457031 327.78125 181.90625 327.78125 187.894531 C 327.78125 196.382812 326.085938 203.21875 322.691406 208.476562 C 319.269531 213.640625 313.613281 216.210938 305.691406 216.210938 C 300.621094 216.210938 296.660156 214.5625 293.808594 211.238281 C 292.417969 209.753906 291.34375 208.070312 290.578125 206.1875 C 289.816406 204.308594 289.414062 202.351562 289.375 200.320312 C 289.375 194.898438 291.023438 190.792969 294.347656 188.035156 C 297.578125 185.183594 302.035156 183.746094 307.765625 183.746094 L 314.390625 183.746094 C 314.027344 179.679688 313.058594 175.765625 311.492188 172.003906 C 309.988281 168.769531 308.007812 165.859375 305.550781 163.277344 C 303.105469 160.613281 300.386719 158.273438 297.390625 156.253906 Z M 246.273438 156.253906 C 242.863281 153.953125 239.363281 151.789062 235.78125 149.769531 L 240.734375 141.46875 C 243.609375 143.214844 247.144531 145.476562 251.390625 148.234375 C 255.632812 150.996094 259.640625 154.367188 263.414062 158.328125 C 267.09375 162.195312 270.230469 166.601562 272.800781 171.578125 C 275.390625 176.457031 276.664062 181.90625 276.664062 187.894531 C 276.664062 196.382812 274.96875 203.21875 271.574219 208.476562 C 268.152344 213.640625 262.496094 216.210938 254.574219 216.210938 C 249.503906 216.210938 245.542969 214.5625 242.691406 211.238281 C 241.300781 209.753906 240.226562 208.070312 239.460938 206.1875 C 238.695312 204.308594 238.296875 202.351562 238.257812 200.320312 C 238.257812 194.898438 239.90625 190.792969 243.230469 188.035156 C 246.460938 185.183594 250.941406 183.746094 256.648438 183.746094 L 263.273438 183.746094 C 262.917969 179.742188 262 175.875 260.515625 172.144531 C 258.972656 168.863281 256.945312 165.914062 254.429688 163.300781 C 251.992188 160.621094 249.273438 158.261719 246.273438 156.230469 Z M 246.273438 156.253906 "/>
</g>
</svg>
