<?xml version="1.0" encoding="UTF-8"?>
<svg xmlns="http://www.w3.org/2000/svg" xmlns:xlink="http://www.w3.org/1999/xlink" width="375pt" height="374.999991pt" viewBox="0 0 375 374.999991" version="1.2">
<g id="surface1">
<path style=" stroke:none;fill-rule:nonzero;fill:rgb(14.509583%,39.219666%,65.489197%);fill-opacity:1;" d="M 58.59375 70.3125 C 57.824219 70.3125 57.0625 70.386719 56.308594 70.539062 C 55.554688 70.6875 54.820312 70.910156 54.109375 71.203125 C 53.398438 71.5 52.722656 71.859375 52.082031 72.289062 C 51.445312 72.714844 50.851562 73.199219 50.308594 73.746094 C 49.761719 74.289062 49.277344 74.882812 48.851562 75.519531 C 48.421875 76.160156 48.0625 76.835938 47.765625 77.546875 C 47.472656 78.257812 47.25 78.992188 47.101562 79.746094 C 46.949219 80.5 46.875 81.261719 46.875 82.03125 C 46.875 82.800781 46.949219 83.5625 47.101562 84.316406 C 47.25 85.070312 47.472656 85.804688 47.765625 86.515625 C 48.0625 87.226562 48.421875 87.902344 48.851562 88.542969 C 49.277344 89.179688 49.761719 89.773438 50.308594 90.316406 C 50.851562 90.863281 51.445312 91.347656 52.082031 91.773438 C 52.722656 92.203125 53.398438 92.5625 54.109375 92.859375 C 54.820312 93.152344 55.554688 93.375 56.308594 93.523438 C 57.0625 93.675781 57.824219 93.75 58.59375 93.75 L 316.40625 93.75 C 317.175781 93.75 317.9375 93.675781 318.691406 93.523438 C 319.445312 93.375 320.179688 93.152344 320.890625 92.859375 C 321.601562 92.5625 322.277344 92.203125 322.917969 91.773438 C 323.554688 91.347656 324.148438 90.863281 324.691406 90.316406 C 325.238281 89.773438 325.722656 89.179688 326.148438 88.542969 C 326.578125 87.902344 326.9375 87.226562 327.234375 86.515625 C 327.527344 85.804688 327.75 85.070312 327.898438 84.316406 C 328.050781 83.5625 328.125 82.800781 328.125 82.03125 C 328.125 81.261719 328.050781 80.5 327.898438 79.746094 C 327.75 78.992188 327.527344 78.257812 327.234375 77.546875 C 326.9375 76.835938 326.578125 76.160156 326.148438 75.519531 C 325.722656 74.882812 325.238281 74.289062 324.691406 73.746094 C 324.148438 73.199219 323.554688 72.714844 322.917969 72.289062 C 322.277344 71.859375 321.601562 71.5 320.890625 71.203125 C 320.179688 70.910156 319.445312 70.6875 318.691406 70.539062 C 317.9375 70.386719 317.175781 70.3125 316.40625 70.3125 Z M 175.78125 140.625 C 175.011719 140.625 174.25 140.699219 173.496094 140.851562 C 172.742188 141 172.007812 141.222656 171.296875 141.515625 C 170.585938 141.8125 169.910156 142.171875 169.269531 142.601562 C 168.628906 143.027344 168.039062 143.511719 167.496094 144.058594 C 166.949219 144.601562 166.464844 145.195312 166.039062 145.832031 C 165.609375 146.472656 165.25 147.148438 164.953125 147.859375 C 164.660156 148.570312 164.4375 149.304688 164.289062 150.058594 C 164.136719 150.8125 164.0625 151.574219 164.0625 152.34375 C 164.0625 153.113281 164.136719 153.875 164.289062 154.628906 C 164.4375 155.382812 164.660156 156.117188 164.953125 156.828125 C 165.25 157.539062 165.609375 158.214844 166.039062 158.855469 C 166.464844 159.492188 166.949219 160.085938 167.496094 160.628906 C 168.039062 161.175781 168.628906 161.660156 169.269531 162.085938 C 169.910156 162.515625 170.585938 162.875 171.296875 163.171875 C 172.007812 163.464844 172.742188 163.6875 173.496094 163.835938 C 174.25 163.988281 175.011719 164.0625 175.78125 164.0625 L 316.40625 164.0625 C 317.175781 164.0625 317.9375 163.988281 318.691406 163.835938 C 319.445312 163.6875 320.179688 163.464844 320.890625 163.171875 C 321.601562 162.875 322.277344 162.515625 322.917969 162.085938 C 323.554688 161.660156 324.148438 161.175781 324.691406 160.628906 C 325.238281 160.085938 325.722656 159.492188 326.148438 158.855469 C 326.578125 158.214844 326.9375 157.539062 327.234375 156.828125 C 327.527344 156.117188 327.75 155.382812 327.898438 154.628906 C 328.050781 153.875 328.125 153.113281 328.125 152.34375 C 328.125 151.574219 328.050781 150.8125 327.898438 150.058594 C 327.75 149.304688 327.527344 148.570312 327.234375 147.859375 C 326.9375 147.148438 326.578125 146.472656 326.148438 145.832031 C 325.722656 145.195312 325.238281 144.601562 324.691406 144.058594 C 324.148438 143.511719 323.554688 143.027344 322.917969 142.601562 C 322.277344 142.171875 321.601562 141.8125 320.890625 141.515625 C 320.179688 141.222656 319.445312 141 318.691406 140.851562 C 317.9375 140.699219 317.175781 140.625 316.40625 140.625 Z M 175.78125 210.9375 C 175.011719 210.9375 174.25 211.011719 173.496094 211.164062 C 172.742188 211.3125 172.007812 211.535156 171.296875 211.828125 C 170.585938 212.125 169.910156 212.484375 169.269531 212.914062 C 168.628906 213.339844 168.039062 213.824219 167.496094 214.371094 C 166.949219 214.914062 166.464844 215.503906 166.039062 216.144531 C 165.609375 216.785156 165.25 217.460938 164.953125 218.171875 C 164.660156 218.882812 164.4375 219.617188 164.289062 220.371094 C 164.136719 221.125 164.0625 221.886719 164.0625 222.65625 C 164.0625 223.425781 164.136719 224.1875 164.289062 224.941406 C 164.4375 225.695312 164.660156 226.429688 164.953125 227.140625 C 165.25 227.851562 165.609375 228.527344 166.039062 229.167969 C 166.464844 229.804688 166.949219 230.398438 167.496094 230.941406 C 168.039062 231.488281 168.628906 231.972656 169.269531 232.398438 C 169.910156 232.828125 170.585938 233.1875 171.296875 233.484375 C 172.007812 233.777344 172.742188 234 173.496094 234.148438 C 174.25 234.300781 175.011719 234.375 175.78125 234.375 L 316.40625 234.375 C 317.175781 234.375 317.9375 234.300781 318.691406 234.148438 C 319.445312 234 320.179688 233.777344 320.890625 233.484375 C 321.601562 233.1875 322.277344 232.828125 322.917969 232.398438 C 323.554688 231.972656 324.148438 231.488281 324.691406 230.941406 C 325.238281 230.398438 325.722656 229.804688 326.148438 229.167969 C 326.578125 228.527344 326.9375 227.851562 327.234375 227.140625 C 327.527344 226.429688 327.75 225.695312 327.898438 224.941406 C 328.050781 224.1875 328.125 223.425781 328.125 222.65625 C 328.125 221.886719 328.050781 221.125 327.898438 220.371094 C 327.75 219.617188 327.527344 218.882812 327.234375 218.171875 C 326.9375 217.460938 326.578125 216.785156 326.148438 216.144531 C 325.722656 215.503906 325.238281 214.914062 324.691406 214.371094 C 324.148438 213.824219 323.554688 213.339844 322.917969 212.914062 C 322.277344 212.484375 321.601562 212.125 320.890625 211.828125 C 320.179688 211.535156 319.445312 211.3125 318.691406 211.164062 C 317.9375 211.011719 317.175781 210.9375 316.40625 210.9375 Z M 58.59375 281.25 C 57.824219 281.25 57.0625 281.324219 56.308594 281.476562 C 55.554688 281.625 54.820312 281.847656 54.109375 282.140625 C 53.398438 282.4375 52.722656 282.796875 52.082031 283.226562 C 51.445312 283.652344 50.851562 284.136719 50.308594 284.683594 C 49.761719 285.226562 49.277344 285.816406 48.851562 286.457031 C 48.421875 287.097656 48.0625 287.773438 47.765625 288.484375 C 47.472656 289.195312 47.25 289.929688 47.101562 290.683594 C 46.949219 291.4375 46.875 292.199219 46.875 292.96875 C 46.875 293.738281 46.949219 294.5 47.101562 295.253906 C 47.25 296.007812 47.472656 296.742188 47.765625 297.453125 C 48.0625 298.164062 48.421875 298.839844 48.851562 299.480469 C 49.277344 300.117188 49.761719 300.710938 50.308594 301.253906 C 50.851562 301.800781 51.445312 302.285156 52.082031 302.710938 C 52.722656 303.140625 53.398438 303.5 54.109375 303.796875 C 54.820312 304.089844 55.554688 304.3125 56.308594 304.460938 C 57.0625 304.613281 57.824219 304.6875 58.59375 304.6875 L 316.40625 304.6875 C 317.175781 304.6875 317.9375 304.613281 318.691406 304.460938 C 319.445312 304.3125 320.179688 304.089844 320.890625 303.796875 C 321.601562 303.5 322.277344 303.140625 322.917969 302.710938 C 323.554688 302.285156 324.148438 301.800781 324.691406 301.253906 C 325.238281 300.710938 325.722656 300.117188 326.148438 299.480469 C 326.578125 298.839844 326.9375 298.164062 327.234375 297.453125 C 327.527344 296.742188 327.75 296.007812 327.898438 295.253906 C 328.050781 294.5 328.125 293.738281 328.125 292.96875 C 328.125 292.199219 328.050781 291.4375 327.898438 290.683594 C 327.75 289.929688 327.527344 289.195312 327.234375 288.484375 C 326.9375 287.773438 326.578125 287.097656 326.148438 286.457031 C 325.722656 285.816406 325.238281 285.226562 324.691406 284.683594 C 324.148438 284.136719 323.554688 283.652344 322.917969 283.226562 C 322.277344 282.796875 321.601562 282.4375 320.890625 282.140625 C 320.179688 281.847656 319.445312 281.625 318.691406 281.476562 C 317.9375 281.324219 317.175781 281.25 316.40625 281.25 Z M 77.109375 155.320312 C 79.734375 153.492188 83.203125 151.335938 87.515625 148.875 L 82.59375 140.625 C 79.734375 142.359375 76.21875 144.609375 72 147.351562 C 67.78125 150.09375 63.796875 153.445312 60.046875 157.382812 C 56.308594 161.328125 53.199219 165.71875 50.71875 170.554688 C 48.140625 175.40625 46.875 180.820312 46.875 186.773438 C 46.875 195.210938 48.5625 202.007812 51.960938 207.234375 C 55.335938 212.367188 60.984375 214.921875 68.835938 214.921875 C 73.875 214.921875 77.8125 213.28125 80.648438 209.976562 C 82.027344 208.503906 83.097656 206.828125 83.859375 204.960938 C 84.617188 203.089844 85.015625 201.144531 85.054688 199.125 C 85.054688 193.734375 83.414062 189.65625 80.109375 186.914062 C 76.898438 184.078125 72.46875 182.648438 66.796875 182.648438 L 60.1875 182.648438 C 60.75 177.890625 61.710938 173.976562 63.070312 170.976562 C 64.5625 167.761719 66.53125 164.871094 68.976562 162.304688 C 71.402344 159.65625 74.105469 157.328125 77.085938 155.320312 Z M 127.898438 155.320312 C 130.546875 153.492188 134.039062 151.335938 138.328125 148.875 L 133.40625 140.625 C 130.546875 142.359375 127.03125 144.609375 122.8125 147.351562 C 118.59375 150.09375 114.609375 153.445312 110.859375 157.382812 C 107.121094 161.328125 104.011719 165.71875 101.53125 170.554688 C 98.953125 175.40625 97.6875 180.820312 97.6875 186.773438 C 97.6875 195.210938 99.375 202.007812 102.773438 207.234375 C 106.148438 212.367188 111.796875 214.921875 119.648438 214.921875 C 124.6875 214.921875 128.625 213.28125 131.460938 209.976562 C 132.839844 208.503906 133.910156 206.828125 134.671875 204.960938 C 135.429688 203.089844 135.828125 201.144531 135.867188 199.125 C 135.867188 193.734375 134.226562 189.65625 130.921875 186.914062 C 127.710938 184.078125 123.28125 182.648438 117.609375 182.648438 L 111 182.648438 C 111.359375 178.671875 112.28125 174.828125 113.765625 171.117188 C 115.125 168.070312 117.140625 165.164062 119.789062 162.328125 C 122.214844 159.664062 124.917969 157.320312 127.898438 155.296875 Z M 127.898438 155.320312 "/>
</g>
</svg>
