<?xml version="1.0" encoding="UTF-8"?>
<svg xmlns="http://www.w3.org/2000/svg" xmlns:xlink="http://www.w3.org/1999/xlink" width="375pt" height="374.999991pt" viewBox="0 0 375 374.999991" version="1.2">
<g id="surface1">
<path style=" stroke:none;fill-rule:evenodd;fill:rgb(14.509583%,39.219666%,65.489197%);fill-opacity:1;" d="M 46.875 292.96875 C 46.875 292.199219 46.949219 291.4375 47.101562 290.683594 C 47.25 289.929688 47.472656 289.195312 47.765625 288.484375 C 48.0625 287.773438 48.421875 287.097656 48.851562 286.457031 C 49.277344 285.820312 49.761719 285.226562 50.308594 284.683594 C 50.851562 284.136719 51.445312 283.652344 52.082031 283.226562 C 52.722656 282.796875 53.398438 282.4375 54.109375 282.140625 C 54.820312 281.847656 55.554688 281.625 56.308594 281.476562 C 57.0625 281.324219 57.824219 281.25 58.59375 281.25 L 316.40625 281.25 C 317.175781 281.25 317.9375 281.324219 318.691406 281.476562 C 319.445312 281.625 320.179688 281.847656 320.890625 282.140625 C 321.601562 282.4375 322.277344 282.796875 322.917969 283.226562 C 323.554688 283.652344 324.148438 284.136719 324.691406 284.683594 C 325.238281 285.226562 325.722656 285.816406 326.148438 286.457031 C 326.578125 287.097656 326.9375 287.773438 327.234375 288.484375 C 327.527344 289.195312 327.75 289.929688 327.898438 290.683594 C 328.050781 291.4375 328.125 292.199219 328.125 292.96875 C 328.125 293.738281 328.050781 294.5 327.898438 295.253906 C 327.75 296.007812 327.527344 296.742188 327.234375 297.453125 C 326.9375 298.164062 326.578125 298.839844 326.148438 299.480469 C 325.722656 300.117188 325.238281 300.710938 324.691406 301.253906 C 324.148438 301.800781 323.554688 302.285156 322.917969 302.710938 C 322.277344 303.140625 321.601562 303.5 320.890625 303.796875 C 320.179688 304.089844 319.445312 304.3125 318.691406 304.460938 C 317.9375 304.613281 317.175781 304.6875 316.40625 304.6875 L 58.59375 304.6875 C 57.824219 304.6875 57.0625 304.613281 56.308594 304.460938 C 55.554688 304.3125 54.820312 304.089844 54.109375 303.796875 C 53.398438 303.5 52.722656 303.140625 52.082031 302.710938 C 51.445312 302.285156 50.851562 301.800781 50.308594 301.253906 C 49.761719 300.710938 49.277344 300.117188 48.851562 299.480469 C 48.421875 298.839844 48.0625 298.164062 47.765625 297.453125 C 47.472656 296.742188 47.25 296.007812 47.101562 295.253906 C 46.949219 294.5 46.875 293.738281 46.875 292.96875 Z M 46.875 222.65625 C 46.875 221.886719 46.949219 221.125 47.101562 220.371094 C 47.25 219.617188 47.472656 218.882812 47.765625 218.171875 C 48.0625 217.460938 48.421875 216.785156 48.851562 216.144531 C 49.277344 215.503906 49.761719 214.914062 50.308594 214.371094 C 50.851562 213.824219 51.445312 213.339844 52.082031 212.914062 C 52.722656 212.484375 53.398438 212.125 54.109375 211.828125 C 54.820312 211.535156 55.554688 211.3125 56.308594 211.164062 C 57.0625 211.011719 57.824219 210.9375 58.59375 210.9375 L 316.40625 210.9375 C 317.175781 210.9375 317.9375 211.011719 318.691406 211.164062 C 319.445312 211.3125 320.179688 211.535156 320.890625 211.828125 C 321.601562 212.125 322.277344 212.484375 322.917969 212.914062 C 323.554688 213.339844 324.148438 213.824219 324.691406 214.371094 C 325.238281 214.914062 325.722656 215.503906 326.148438 216.144531 C 326.578125 216.785156 326.9375 217.460938 327.234375 218.171875 C 327.527344 218.882812 327.75 219.617188 327.898438 220.371094 C 328.050781 221.125 328.125 221.886719 328.125 222.65625 C 328.125 223.425781 328.050781 224.1875 327.898438 224.941406 C 327.75 225.695312 327.527344 226.429688 327.234375 227.140625 C 326.9375 227.851562 326.578125 228.527344 326.148438 229.167969 C 325.722656 229.804688 325.238281 230.398438 324.691406 230.941406 C 324.148438 231.488281 323.554688 231.972656 322.917969 232.398438 C 322.277344 232.828125 321.601562 233.1875 320.890625 233.484375 C 320.179688 233.777344 319.445312 234 318.691406 234.148438 C 317.9375 234.300781 317.175781 234.375 316.40625 234.375 L 58.59375 234.375 C 57.824219 234.375 57.0625 234.300781 56.308594 234.148438 C 55.554688 234 54.820312 233.777344 54.109375 233.484375 C 53.398438 233.1875 52.722656 232.828125 52.082031 232.398438 C 51.445312 231.972656 50.851562 231.488281 50.308594 230.941406 C 49.761719 230.398438 49.277344 229.804688 48.851562 229.167969 C 48.421875 228.527344 48.0625 227.851562 47.765625 227.140625 C 47.472656 226.429688 47.25 225.695312 47.101562 224.941406 C 46.949219 224.1875 46.875 223.425781 46.875 222.65625 Z M 46.875 152.34375 C 46.875 151.574219 46.949219 150.8125 47.101562 150.058594 C 47.25 149.304688 47.472656 148.570312 47.765625 147.859375 C 48.0625 147.148438 48.421875 146.472656 48.851562 145.832031 C 49.277344 145.195312 49.761719 144.601562 50.308594 144.058594 C 50.851562 143.511719 51.445312 143.027344 52.082031 142.601562 C 52.722656 142.171875 53.398438 141.8125 54.109375 141.515625 C 54.820312 141.222656 55.554688 141 56.308594 140.851562 C 57.0625 140.699219 57.824219 140.625 58.59375 140.625 L 316.40625 140.625 C 317.175781 140.625 317.9375 140.699219 318.691406 140.851562 C 319.445312 141 320.179688 141.222656 320.890625 141.515625 C 321.601562 141.8125 322.277344 142.171875 322.917969 142.601562 C 323.554688 143.027344 324.148438 143.511719 324.691406 144.058594 C 325.238281 144.601562 325.722656 145.195312 326.148438 145.832031 C 326.578125 146.472656 326.9375 147.148438 327.234375 147.859375 C 327.527344 148.570312 327.75 149.304688 327.898438 150.058594 C 328.050781 150.8125 328.125 151.574219 328.125 152.34375 C 328.125 153.113281 328.050781 153.875 327.898438 154.628906 C 327.75 155.382812 327.527344 156.117188 327.234375 156.828125 C 326.9375 157.539062 326.578125 158.214844 326.148438 158.855469 C 325.722656 159.492188 325.238281 160.085938 324.691406 160.628906 C 324.148438 161.175781 323.554688 161.660156 322.917969 162.085938 C 322.277344 162.515625 321.601562 162.875 320.890625 163.171875 C 320.179688 163.464844 319.445312 163.6875 318.691406 163.835938 C 317.9375 163.988281 317.175781 164.0625 316.40625 164.0625 L 58.59375 164.0625 C 57.824219 164.0625 57.0625 163.988281 56.308594 163.835938 C 55.554688 163.6875 54.820312 163.464844 54.109375 163.171875 C 53.398438 162.875 52.722656 162.515625 52.082031 162.085938 C 51.445312 161.660156 50.851562 161.175781 50.308594 160.628906 C 49.761719 160.085938 49.277344 159.492188 48.851562 158.855469 C 48.421875 158.214844 48.0625 157.539062 47.765625 156.828125 C 47.472656 156.117188 47.25 155.382812 47.101562 154.628906 C 46.949219 153.875 46.875 153.113281 46.875 152.34375 Z M 46.875 82.03125 C 46.875 81.261719 46.949219 80.5 47.101562 79.746094 C 47.25 78.992188 47.472656 78.257812 47.765625 77.546875 C 48.0625 76.835938 48.421875 76.160156 48.851562 75.519531 C 49.277344 74.882812 49.761719 74.289062 50.308594 73.746094 C 50.851562 73.199219 51.445312 72.714844 52.082031 72.289062 C 52.722656 71.859375 53.398438 71.5 54.109375 71.203125 C 54.820312 70.910156 55.554688 70.6875 56.308594 70.539062 C 57.0625 70.386719 57.824219 70.3125 58.59375 70.3125 L 316.40625 70.3125 C 317.175781 70.3125 317.9375 70.386719 318.691406 70.539062 C 319.445312 70.6875 320.179688 70.910156 320.890625 71.203125 C 321.601562 71.5 322.277344 71.859375 322.917969 72.289062 C 323.554688 72.714844 324.148438 73.199219 324.691406 73.746094 C 325.238281 74.289062 325.722656 74.882812 326.148438 75.519531 C 326.578125 76.160156 326.9375 76.835938 327.234375 77.546875 C 327.527344 78.257812 327.75 78.992188 327.898438 79.746094 C 328.050781 80.5 328.125 81.261719 328.125 82.03125 C 328.125 82.800781 328.050781 83.5625 327.898438 84.316406 C 327.75 85.070312 327.527344 85.804688 327.234375 86.515625 C 326.9375 87.226562 326.578125 87.902344 326.148438 88.542969 C 325.722656 89.179688 325.238281 89.773438 324.691406 90.316406 C 324.148438 90.863281 323.554688 91.347656 322.917969 91.773438 C 322.277344 92.203125 321.601562 92.5625 320.890625 92.859375 C 320.179688 93.152344 319.445312 93.375 318.691406 93.523438 C 317.9375 93.675781 317.175781 93.75 316.40625 93.75 L 58.59375 93.75 C 57.824219 93.75 57.0625 93.675781 56.308594 93.523438 C 55.554688 93.375 54.820312 93.152344 54.109375 92.859375 C 53.398438 92.5625 52.722656 92.203125 52.082031 91.773438 C 51.445312 91.347656 50.851562 90.863281 50.308594 90.316406 C 49.761719 89.773438 49.277344 89.179688 48.851562 88.542969 C 48.421875 87.902344 48.0625 87.226562 47.765625 86.515625 C 47.472656 85.804688 47.25 85.070312 47.101562 84.316406 C 46.949219 83.5625 46.875 82.800781 46.875 82.03125 Z M 46.875 82.03125 "/>
</g>
</svg>
