<?xml version="1.0" encoding="UTF-8"?>
<svg xmlns="http://www.w3.org/2000/svg" xmlns:xlink="http://www.w3.org/1999/xlink" width="375pt" height="374.999991pt" viewBox="0 0 375 374.999991" version="1.2">
<g id="surface1">
<path style=" stroke:none;fill-rule:nonzero;fill:rgb(14.509583%,39.219666%,65.489197%);fill-opacity:1;" d="M 234.375 70.3125 C 235.144531 70.3125 235.910156 70.351562 236.671875 70.425781 C 237.4375 70.5 238.195312 70.613281 238.949219 70.761719 C 239.699219 70.914062 240.445312 71.097656 241.179688 71.320312 C 241.914062 71.542969 242.636719 71.804688 243.34375 72.097656 C 244.054688 72.390625 244.746094 72.71875 245.421875 73.078125 C 246.101562 73.441406 246.757812 73.835938 247.394531 74.261719 C 248.035156 74.6875 248.648438 75.144531 249.242188 75.632812 C 249.835938 76.121094 250.40625 76.632812 250.949219 77.175781 C 251.492188 77.71875 252.003906 78.289062 252.492188 78.882812 C 252.980469 79.476562 253.4375 80.089844 253.863281 80.730469 C 254.289062 81.367188 254.683594 82.023438 255.046875 82.703125 C 255.40625 83.378906 255.734375 84.070312 256.027344 84.78125 C 256.320312 85.488281 256.582031 86.210938 256.804688 86.945312 C 257.027344 87.679688 257.210938 88.425781 257.363281 89.175781 C 257.511719 89.929688 257.625 90.6875 257.699219 91.453125 C 257.773438 92.214844 257.8125 92.980469 257.8125 93.75 L 257.8125 281.25 C 257.8125 282.019531 257.773438 282.785156 257.699219 283.546875 C 257.625 284.3125 257.511719 285.070312 257.363281 285.824219 C 257.210938 286.574219 257.027344 287.320312 256.804688 288.054688 C 256.582031 288.789062 256.320312 289.511719 256.027344 290.21875 C 255.734375 290.929688 255.40625 291.621094 255.046875 292.296875 C 254.683594 292.976562 254.289062 293.632812 253.863281 294.269531 C 253.4375 294.910156 252.980469 295.523438 252.492188 296.117188 C 252.003906 296.710938 251.492188 297.28125 250.949219 297.824219 C 250.40625 298.367188 249.835938 298.878906 249.242188 299.367188 C 248.648438 299.855469 248.035156 300.3125 247.394531 300.738281 C 246.757812 301.164062 246.101562 301.558594 245.421875 301.921875 C 244.746094 302.28125 244.054688 302.609375 243.34375 302.902344 C 242.636719 303.195312 241.914062 303.457031 241.179688 303.679688 C 240.445312 303.902344 239.699219 304.085938 238.949219 304.238281 C 238.195312 304.386719 237.4375 304.5 236.671875 304.574219 C 235.910156 304.648438 235.144531 304.6875 234.375 304.6875 L 140.625 304.6875 C 139.855469 304.6875 139.089844 304.648438 138.328125 304.574219 C 137.5625 304.5 136.804688 304.386719 136.050781 304.238281 C 135.300781 304.085938 134.554688 303.902344 133.820312 303.679688 C 133.085938 303.457031 132.363281 303.195312 131.65625 302.902344 C 130.945312 302.609375 130.253906 302.28125 129.578125 301.921875 C 128.898438 301.558594 128.242188 301.164062 127.605469 300.738281 C 126.964844 300.3125 126.351562 299.855469 125.757812 299.367188 C 125.164062 298.878906 124.59375 298.367188 124.050781 297.824219 C 123.507812 297.28125 122.996094 296.710938 122.507812 296.117188 C 122.019531 295.523438 121.5625 294.910156 121.136719 294.269531 C 120.710938 293.632812 120.316406 292.976562 119.953125 292.296875 C 119.59375 291.621094 119.265625 290.929688 118.972656 290.21875 C 118.679688 289.511719 118.417969 288.789062 118.195312 288.054688 C 117.972656 287.320312 117.789062 286.574219 117.636719 285.824219 C 117.488281 285.070312 117.375 284.3125 117.300781 283.546875 C 117.226562 282.785156 117.1875 282.019531 117.1875 281.25 L 117.1875 93.75 C 117.1875 92.980469 117.226562 92.214844 117.300781 91.453125 C 117.375 90.6875 117.488281 89.929688 117.636719 89.175781 C 117.789062 88.425781 117.972656 87.679688 118.195312 86.945312 C 118.417969 86.210938 118.679688 85.488281 118.972656 84.78125 C 119.265625 84.070312 119.59375 83.378906 119.953125 82.703125 C 120.316406 82.023438 120.710938 81.367188 121.136719 80.730469 C 121.5625 80.089844 122.019531 79.476562 122.507812 78.882812 C 122.996094 78.289062 123.507812 77.71875 124.050781 77.175781 C 124.59375 76.632812 125.164062 76.121094 125.757812 75.632812 C 126.351562 75.144531 126.964844 74.6875 127.605469 74.261719 C 128.242188 73.835938 128.898438 73.441406 129.578125 73.078125 C 130.253906 72.71875 130.945312 72.390625 131.65625 72.097656 C 132.363281 71.804688 133.085938 71.542969 133.820312 71.320312 C 134.554688 71.097656 135.300781 70.914062 136.050781 70.761719 C 136.804688 70.613281 137.5625 70.5 138.328125 70.425781 C 139.089844 70.351562 139.855469 70.3125 140.625 70.3125 Z M 140.625 46.875 C 139.089844 46.875 137.558594 46.949219 136.03125 47.101562 C 134.503906 47.25 132.984375 47.476562 131.480469 47.777344 C 129.972656 48.074219 128.488281 48.449219 127.019531 48.894531 C 125.546875 49.339844 124.105469 49.855469 122.6875 50.441406 C 121.269531 51.03125 119.882812 51.6875 118.527344 52.410156 C 117.175781 53.132812 115.859375 53.921875 114.582031 54.773438 C 113.304688 55.628906 112.074219 56.542969 110.886719 57.515625 C 109.699219 58.488281 108.566406 59.519531 107.480469 60.605469 C 106.394531 61.691406 105.363281 62.824219 104.390625 64.011719 C 103.417969 65.199219 102.503906 66.429688 101.648438 67.707031 C 100.796875 68.984375 100.007812 70.300781 99.285156 71.652344 C 98.5625 73.007812 97.90625 74.394531 97.316406 75.8125 C 96.730469 77.230469 96.214844 78.671875 95.769531 80.144531 C 95.324219 81.613281 94.949219 83.097656 94.652344 84.605469 C 94.351562 86.109375 94.125 87.628906 93.976562 89.15625 C 93.824219 90.683594 93.75 92.214844 93.75 93.75 L 93.75 281.25 C 93.75 282.785156 93.824219 284.316406 93.976562 285.84375 C 94.125 287.371094 94.351562 288.890625 94.652344 290.394531 C 94.949219 291.902344 95.324219 293.386719 95.769531 294.855469 C 96.214844 296.324219 96.730469 297.769531 97.316406 299.1875 C 97.90625 300.605469 98.5625 301.992188 99.285156 303.347656 C 100.007812 304.699219 100.796875 306.015625 101.648438 307.292969 C 102.503906 308.570312 103.417969 309.800781 104.390625 310.988281 C 105.363281 312.175781 106.394531 313.308594 107.480469 314.394531 C 108.566406 315.480469 109.699219 316.511719 110.886719 317.484375 C 112.074219 318.457031 113.304688 319.371094 114.582031 320.226562 C 115.859375 321.078125 117.175781 321.867188 118.527344 322.589844 C 119.882812 323.3125 121.269531 323.96875 122.6875 324.558594 C 124.105469 325.144531 125.546875 325.660156 127.019531 326.105469 C 128.488281 326.550781 129.972656 326.925781 131.480469 327.222656 C 132.984375 327.523438 134.503906 327.75 136.03125 327.898438 C 137.558594 328.050781 139.089844 328.125 140.625 328.125 L 234.375 328.125 C 235.910156 328.125 237.441406 328.050781 238.96875 327.898438 C 240.496094 327.75 242.015625 327.523438 243.519531 327.222656 C 245.027344 326.925781 246.511719 326.550781 247.980469 326.105469 C 249.449219 325.660156 250.894531 325.144531 252.3125 324.558594 C 253.730469 323.96875 255.117188 323.3125 256.472656 322.589844 C 257.824219 321.867188 259.140625 321.078125 260.417969 320.226562 C 261.695312 319.371094 262.925781 318.457031 264.113281 317.484375 C 265.300781 316.511719 266.433594 315.480469 267.519531 314.394531 C 268.605469 313.308594 269.636719 312.175781 270.609375 310.988281 C 271.582031 309.800781 272.496094 308.570312 273.351562 307.292969 C 274.203125 306.015625 274.992188 304.699219 275.714844 303.347656 C 276.4375 301.992188 277.09375 300.605469 277.683594 299.1875 C 278.269531 297.769531 278.785156 296.324219 279.230469 294.855469 C 279.675781 293.386719 280.050781 291.902344 280.347656 290.394531 C 280.648438 288.890625 280.875 287.371094 281.023438 285.84375 C 281.175781 284.316406 281.25 282.785156 281.25 281.25 L 281.25 93.75 C 281.25 92.214844 281.175781 90.683594 281.023438 89.15625 C 280.875 87.628906 280.648438 86.109375 280.347656 84.605469 C 280.050781 83.097656 279.675781 81.613281 279.230469 80.144531 C 278.785156 78.671875 278.269531 77.230469 277.683594 75.8125 C 277.09375 74.394531 276.4375 73.007812 275.714844 71.652344 C 274.992188 70.300781 274.203125 68.984375 273.351562 67.707031 C 272.496094 66.429688 271.582031 65.199219 270.609375 64.011719 C 269.636719 62.824219 268.605469 61.691406 267.519531 60.605469 C 266.433594 59.519531 265.300781 58.488281 264.113281 57.515625 C 262.925781 56.542969 261.695312 55.628906 260.417969 54.773438 C 259.140625 53.921875 257.824219 53.132812 256.472656 52.410156 C 255.117188 51.6875 253.730469 51.03125 252.3125 50.441406 C 250.894531 49.855469 249.449219 49.339844 247.980469 48.894531 C 246.511719 48.449219 245.027344 48.074219 243.519531 47.777344 C 242.015625 47.476562 240.496094 47.25 238.96875 47.101562 C 237.441406 46.949219 235.910156 46.875 234.375 46.875 Z M 140.625 46.875 "/>
<path style=" stroke:none;fill-rule:nonzero;fill:rgb(14.509583%,39.219666%,65.489197%);fill-opacity:1;" d="M 187.5 281.25 C 188.269531 281.25 189.035156 281.210938 189.796875 281.136719 C 190.5625 281.0625 191.320312 280.949219 192.074219 280.800781 C 192.824219 280.648438 193.570312 280.464844 194.304688 280.242188 C 195.039062 280.019531 195.761719 279.757812 196.46875 279.464844 C 197.179688 279.171875 197.871094 278.84375 198.546875 278.484375 C 199.226562 278.121094 199.882812 277.726562 200.519531 277.300781 C 201.160156 276.875 201.773438 276.417969 202.367188 275.929688 C 202.960938 275.441406 203.53125 274.929688 204.074219 274.386719 C 204.617188 273.84375 205.128906 273.273438 205.617188 272.679688 C 206.105469 272.085938 206.5625 271.472656 206.988281 270.832031 C 207.414062 270.195312 207.808594 269.539062 208.171875 268.859375 C 208.53125 268.183594 208.859375 267.492188 209.152344 266.78125 C 209.445312 266.074219 209.707031 265.351562 209.929688 264.617188 C 210.152344 263.882812 210.335938 263.136719 210.488281 262.386719 C 210.636719 261.632812 210.75 260.875 210.824219 260.109375 C 210.898438 259.347656 210.9375 258.582031 210.9375 257.8125 C 210.9375 257.042969 210.898438 256.277344 210.824219 255.515625 C 210.75 254.75 210.636719 253.992188 210.488281 253.238281 C 210.335938 252.488281 210.152344 251.742188 209.929688 251.007812 C 209.707031 250.273438 209.445312 249.550781 209.152344 248.84375 C 208.859375 248.132812 208.53125 247.441406 208.171875 246.765625 C 207.808594 246.085938 207.414062 245.429688 206.988281 244.792969 C 206.5625 244.152344 206.105469 243.539062 205.617188 242.945312 C 205.128906 242.351562 204.617188 241.78125 204.074219 241.238281 C 203.53125 240.695312 202.960938 240.183594 202.367188 239.695312 C 201.773438 239.207031 201.160156 238.75 200.519531 238.324219 C 199.882812 237.898438 199.226562 237.503906 198.546875 237.140625 C 197.871094 236.78125 197.179688 236.453125 196.46875 236.160156 C 195.761719 235.867188 195.039062 235.605469 194.304688 235.382812 C 193.570312 235.160156 192.824219 234.976562 192.074219 234.824219 C 191.320312 234.675781 190.5625 234.5625 189.796875 234.488281 C 189.035156 234.414062 188.269531 234.375 187.5 234.375 C 186.730469 234.375 185.964844 234.414062 185.203125 234.488281 C 184.4375 234.5625 183.679688 234.675781 182.925781 234.824219 C 182.175781 234.976562 181.429688 235.160156 180.695312 235.382812 C 179.960938 235.605469 179.238281 235.867188 178.53125 236.160156 C 177.820312 236.453125 177.128906 236.78125 176.453125 237.140625 C 175.773438 237.503906 175.117188 237.898438 174.480469 238.324219 C 173.839844 238.75 173.226562 239.207031 172.632812 239.695312 C 172.039062 240.183594 171.46875 240.695312 170.925781 241.238281 C 170.382812 241.78125 169.871094 242.351562 169.382812 242.945312 C 168.894531 243.539062 168.4375 244.152344 168.011719 244.792969 C 167.585938 245.429688 167.191406 246.085938 166.828125 246.765625 C 166.46875 247.441406 166.140625 248.132812 165.847656 248.84375 C 165.554688 249.550781 165.292969 250.273438 165.070312 251.007812 C 164.847656 251.742188 164.664062 252.488281 164.511719 253.238281 C 164.363281 253.992188 164.25 254.75 164.175781 255.515625 C 164.101562 256.277344 164.0625 257.042969 164.0625 257.8125 C 164.0625 258.582031 164.101562 259.347656 164.175781 260.109375 C 164.25 260.875 164.363281 261.632812 164.511719 262.386719 C 164.664062 263.136719 164.847656 263.882812 165.070312 264.617188 C 165.292969 265.351562 165.554688 266.074219 165.847656 266.78125 C 166.140625 267.492188 166.46875 268.183594 166.828125 268.859375 C 167.191406 269.539062 167.585938 270.195312 168.011719 270.832031 C 168.4375 271.472656 168.894531 272.085938 169.382812 272.679688 C 169.871094 273.273438 170.382812 273.84375 170.925781 274.386719 C 171.46875 274.929688 172.039062 275.441406 172.632812 275.929688 C 173.226562 276.417969 173.839844 276.875 174.480469 277.300781 C 175.117188 277.726562 175.773438 278.121094 176.453125 278.484375 C 177.128906 278.84375 177.820312 279.171875 178.53125 279.464844 C 179.238281 279.757812 179.960938 280.019531 180.695312 280.242188 C 181.429688 280.464844 182.175781 280.648438 182.925781 280.800781 C 183.679688 280.949219 184.4375 281.0625 185.203125 281.136719 C 185.964844 281.210938 186.730469 281.25 187.5 281.25 Z M 37.476562 95.109375 C 38.15625 95.46875 38.796875 95.890625 39.394531 96.378906 C 39.988281 96.863281 40.535156 97.402344 41.023438 97.996094 C 41.515625 98.589844 41.941406 99.222656 42.308594 99.902344 C 42.675781 100.578125 42.96875 101.285156 43.195312 102.019531 C 43.421875 102.757812 43.574219 103.507812 43.652344 104.273438 C 43.730469 105.039062 43.734375 105.804688 43.664062 106.570312 C 43.589844 107.335938 43.445312 108.089844 43.222656 108.828125 C 43.003906 109.5625 42.710938 110.273438 42.351562 110.953125 C 39.246094 116.828125 36.511719 122.871094 34.144531 129.078125 C 31.777344 135.289062 29.796875 141.617188 28.203125 148.066406 C 26.609375 154.519531 25.414062 161.042969 24.617188 167.636719 C 23.820312 174.234375 23.425781 180.855469 23.4375 187.5 C 23.4375 215.15625 30.28125 241.21875 42.351562 264.046875 C 42.710938 264.726562 43 265.4375 43.222656 266.171875 C 43.441406 266.910156 43.589844 267.660156 43.660156 268.429688 C 43.730469 269.195312 43.730469 269.960938 43.652344 270.726562 C 43.570312 271.492188 43.417969 272.242188 43.191406 272.976562 C 42.964844 273.710938 42.671875 274.417969 42.304688 275.09375 C 41.941406 275.773438 41.511719 276.40625 41.019531 277 C 40.53125 277.59375 39.988281 278.132812 39.390625 278.617188 C 38.792969 279.105469 38.15625 279.527344 37.476562 279.886719 C 36.792969 280.246094 36.085938 280.539062 35.347656 280.757812 C 34.613281 280.976562 33.859375 281.125 33.09375 281.195312 C 32.328125 281.269531 31.5625 281.265625 30.796875 281.1875 C 30.03125 281.109375 29.28125 280.957031 28.546875 280.730469 C 27.808594 280.503906 27.101562 280.210938 26.425781 279.84375 C 25.75 279.480469 25.113281 279.050781 24.519531 278.5625 C 23.925781 278.070312 23.386719 277.527344 22.902344 276.929688 C 22.417969 276.332031 21.992188 275.695312 21.632812 275.015625 C 18.082031 268.296875 14.957031 261.390625 12.25 254.292969 C 9.542969 247.195312 7.28125 239.957031 5.457031 232.582031 C 3.632812 225.207031 2.265625 217.75 1.351562 210.207031 C 0.441406 202.667969 -0.0117188 195.097656 0 187.5 C 0 155.929688 7.828125 126.117188 21.632812 99.984375 C 21.992188 99.304688 22.414062 98.664062 22.902344 98.066406 C 23.386719 97.472656 23.925781 96.925781 24.519531 96.4375 C 25.113281 95.945312 25.746094 95.519531 26.425781 95.152344 C 27.101562 94.785156 27.808594 94.492188 28.542969 94.265625 C 29.28125 94.039062 30.03125 93.886719 30.796875 93.808594 C 31.5625 93.730469 32.328125 93.726562 33.09375 93.796875 C 33.859375 93.871094 34.613281 94.015625 35.351562 94.238281 C 36.085938 94.457031 36.796875 94.75 37.476562 95.109375 Z M 337.523438 95.109375 C 338.203125 94.75 338.914062 94.457031 339.648438 94.238281 C 340.386719 94.015625 341.140625 93.871094 341.90625 93.796875 C 342.671875 93.726562 343.4375 93.730469 344.203125 93.808594 C 344.96875 93.886719 345.71875 94.039062 346.457031 94.265625 C 347.191406 94.492188 347.898438 94.785156 348.574219 95.152344 C 349.253906 95.519531 349.886719 95.945312 350.480469 96.4375 C 351.074219 96.925781 351.613281 97.472656 352.097656 98.066406 C 352.585938 98.664062 353.007812 99.304688 353.367188 99.984375 C 356.917969 106.699219 360.042969 113.609375 362.75 120.707031 C 365.457031 127.804688 367.722656 135.042969 369.542969 142.417969 C 371.367188 149.792969 372.734375 157.25 373.648438 164.792969 C 374.558594 172.332031 375.011719 179.902344 375 187.5 C 375.011719 195.097656 374.558594 202.667969 373.648438 210.207031 C 372.734375 217.75 371.367188 225.207031 369.542969 232.582031 C 367.722656 239.957031 365.457031 247.195312 362.75 254.292969 C 360.042969 261.390625 356.917969 268.300781 353.367188 275.015625 C 353.007812 275.695312 352.582031 276.332031 352.097656 276.929688 C 351.609375 277.523438 351.070312 278.066406 350.476562 278.558594 C 349.886719 279.046875 349.25 279.472656 348.574219 279.839844 C 347.894531 280.203125 347.191406 280.5 346.453125 280.726562 C 345.71875 280.949219 344.96875 281.101562 344.203125 281.179688 C 343.4375 281.257812 342.671875 281.261719 341.90625 281.1875 C 341.140625 281.117188 340.390625 280.96875 339.65625 280.75 C 338.917969 280.53125 338.210938 280.238281 337.53125 279.878906 C 336.851562 279.519531 336.210938 279.097656 335.613281 278.609375 C 335.019531 278.125 334.476562 277.585938 333.984375 276.996094 C 333.492188 276.402344 333.066406 275.765625 332.699219 275.089844 C 332.335938 274.414062 332.039062 273.707031 331.8125 272.972656 C 331.585938 272.238281 331.433594 271.488281 331.355469 270.722656 C 331.273438 269.957031 331.273438 269.191406 331.34375 268.425781 C 331.414062 267.660156 331.5625 266.910156 331.78125 266.171875 C 332 265.4375 332.289062 264.726562 332.648438 264.046875 C 335.753906 258.171875 338.488281 252.128906 340.855469 245.921875 C 343.222656 239.710938 345.203125 233.382812 346.796875 226.933594 C 348.390625 220.480469 349.585938 213.957031 350.382812 207.363281 C 351.179688 200.765625 351.574219 194.144531 351.5625 187.5 C 351.5625 159.84375 344.71875 133.78125 332.648438 110.953125 C 332.289062 110.273438 331.996094 109.5625 331.777344 108.828125 C 331.554688 108.089844 331.410156 107.335938 331.335938 106.570312 C 331.265625 105.804688 331.269531 105.039062 331.347656 104.273438 C 331.425781 103.507812 331.578125 102.757812 331.804688 102.019531 C 332.03125 101.285156 332.324219 100.578125 332.691406 99.902344 C 333.058594 99.222656 333.484375 98.589844 333.976562 97.996094 C 334.464844 97.402344 335.011719 96.863281 335.605469 96.378906 C 336.203125 95.890625 336.84375 95.46875 337.523438 95.109375 Z M 71.648438 129.703125 C 72.367188 129.984375 73.050781 130.328125 73.699219 130.746094 C 74.347656 131.160156 74.949219 131.632812 75.503906 132.164062 C 76.058594 132.699219 76.558594 133.28125 77 133.914062 C 77.441406 134.542969 77.816406 135.210938 78.125 135.917969 C 78.433594 136.621094 78.671875 137.351562 78.835938 138.101562 C 79 138.855469 79.09375 139.617188 79.109375 140.386719 C 79.125 141.15625 79.0625 141.917969 78.929688 142.679688 C 78.792969 143.4375 78.585938 144.171875 78.304688 144.890625 C 75.65625 151.679688 73.660156 158.65625 72.316406 165.820312 C 70.972656 172.984375 70.304688 180.210938 70.3125 187.5 C 70.3125 202.546875 73.125 216.914062 78.28125 230.109375 C 78.609375 230.832031 78.859375 231.582031 79.035156 232.359375 C 79.207031 233.132812 79.300781 233.917969 79.316406 234.714844 C 79.332031 235.507812 79.265625 236.296875 79.121094 237.078125 C 78.976562 237.859375 78.753906 238.617188 78.453125 239.351562 C 78.152344 240.089844 77.78125 240.785156 77.339844 241.445312 C 76.898438 242.109375 76.394531 242.71875 75.828125 243.273438 C 75.265625 243.832031 74.648438 244.328125 73.980469 244.761719 C 73.316406 245.195312 72.613281 245.554688 71.871094 245.84375 C 71.132812 246.132812 70.371094 246.347656 69.585938 246.480469 C 68.804688 246.617188 68.015625 246.671875 67.222656 246.644531 C 66.425781 246.617188 65.644531 246.511719 64.871094 246.328125 C 64.097656 246.144531 63.351562 245.882812 62.632812 245.546875 C 61.914062 245.207031 61.234375 244.800781 60.597656 244.328125 C 59.960938 243.851562 59.378906 243.316406 58.847656 242.726562 C 58.320312 242.132812 57.855469 241.492188 57.457031 240.804688 C 57.0625 240.113281 56.734375 239.394531 56.484375 238.640625 C 53.300781 230.492188 50.902344 222.117188 49.289062 213.519531 C 47.671875 204.921875 46.867188 196.25 46.875 187.5 C 46.875 169.476562 50.273438 152.226562 56.484375 136.359375 C 56.765625 135.644531 57.109375 134.960938 57.523438 134.3125 C 57.9375 133.664062 58.414062 133.066406 58.945312 132.511719 C 59.476562 131.957031 60.058594 131.457031 60.6875 131.019531 C 61.316406 130.578125 61.984375 130.203125 62.6875 129.894531 C 63.394531 129.585938 64.121094 129.347656 64.871094 129.183594 C 65.621094 129.015625 66.382812 128.925781 67.148438 128.910156 C 67.917969 128.890625 68.679688 128.949219 69.4375 129.085938 C 70.195312 129.21875 70.933594 129.425781 71.648438 129.703125 Z M 303.351562 129.703125 C 304.070312 129.421875 304.804688 129.214844 305.5625 129.078125 C 306.324219 128.945312 307.085938 128.882812 307.855469 128.898438 C 308.625 128.914062 309.386719 129.007812 310.140625 129.171875 C 310.890625 129.335938 311.621094 129.574219 312.324219 129.882812 C 313.03125 130.191406 313.699219 130.566406 314.328125 131.007812 C 314.960938 131.449219 315.542969 131.945312 316.078125 132.503906 C 316.609375 133.058594 317.082031 133.660156 317.496094 134.308594 C 317.914062 134.957031 318.257812 135.640625 318.539062 136.359375 C 324.726562 152.226562 328.125 169.476562 328.125 187.5 C 328.125 205.523438 324.726562 222.773438 318.515625 238.640625 C 318.210938 239.320312 317.839844 239.960938 317.414062 240.570312 C 316.984375 241.179688 316.5 241.742188 315.964844 242.257812 C 315.429688 242.773438 314.847656 243.234375 314.226562 243.640625 C 313.601562 244.046875 312.945312 244.390625 312.253906 244.671875 C 311.566406 244.953125 310.855469 245.164062 310.125 245.3125 C 309.398438 245.457031 308.660156 245.53125 307.914062 245.535156 C 307.171875 245.542969 306.433594 245.476562 305.703125 245.339844 C 304.96875 245.207031 304.257812 245.003906 303.5625 244.730469 C 302.871094 244.460938 302.210938 244.125 301.582031 243.726562 C 300.949219 243.332031 300.363281 242.878906 299.820312 242.367188 C 299.277344 241.859375 298.789062 241.304688 298.351562 240.703125 C 297.914062 240.097656 297.539062 239.460938 297.222656 238.785156 C 296.90625 238.113281 296.65625 237.414062 296.472656 236.695312 C 296.292969 235.972656 296.179688 235.238281 296.136719 234.496094 C 296.09375 233.753906 296.121094 233.011719 296.21875 232.273438 C 296.316406 231.539062 296.484375 230.816406 296.71875 230.109375 C 301.875 216.914062 304.6875 202.546875 304.6875 187.5 C 304.6875 172.453125 301.875 158.085938 296.71875 144.890625 C 296.4375 144.175781 296.230469 143.4375 296.09375 142.679688 C 295.957031 141.921875 295.898438 141.160156 295.914062 140.390625 C 295.925781 139.621094 296.015625 138.859375 296.179688 138.109375 C 296.34375 137.355469 296.582031 136.628906 296.890625 135.921875 C 297.199219 135.21875 297.570312 134.550781 298.011719 133.917969 C 298.449219 133.285156 298.949219 132.703125 299.503906 132.171875 C 300.054688 131.636719 300.65625 131.164062 301.304688 130.746094 C 301.953125 130.332031 302.636719 129.984375 303.351562 129.703125 Z M 303.351562 129.703125 "/>
</g>
</svg>
