<?xml version="1.0" encoding="UTF-8"?>
<svg xmlns="http://www.w3.org/2000/svg" xmlns:xlink="http://www.w3.org/1999/xlink" width="375pt" height="374.999991pt" viewBox="0 0 375 374.999991" version="1.2">
<g id="surface1">
<path style=" stroke:none;fill-rule:nonzero;fill:rgb(14.509583%,39.219666%,65.489197%);fill-opacity:1;" d="M 93.75 93.75 C 93.75 92.214844 93.824219 90.683594 93.976562 89.15625 C 94.125 87.628906 94.351562 86.109375 94.652344 84.605469 C 94.949219 83.097656 95.324219 81.613281 95.769531 80.144531 C 96.214844 78.671875 96.730469 77.230469 97.316406 75.8125 C 97.90625 74.394531 98.5625 73.007812 99.285156 71.652344 C 100.007812 70.300781 100.796875 68.984375 101.648438 67.707031 C 102.503906 66.429688 103.417969 65.199219 104.390625 64.011719 C 105.363281 62.824219 106.394531 61.691406 107.480469 60.605469 C 108.566406 59.519531 109.699219 58.488281 110.886719 57.515625 C 112.074219 56.542969 113.304688 55.628906 114.582031 54.773438 C 115.859375 53.921875 117.175781 53.132812 118.527344 52.410156 C 119.882812 51.6875 121.269531 51.03125 122.6875 50.441406 C 124.105469 49.855469 125.546875 49.339844 127.019531 48.894531 C 128.488281 48.449219 129.972656 48.074219 131.480469 47.777344 C 132.984375 47.476562 134.503906 47.25 136.03125 47.101562 C 137.558594 46.949219 139.089844 46.875 140.625 46.875 L 234.375 46.875 C 235.910156 46.875 237.441406 46.949219 238.96875 47.101562 C 240.496094 47.25 242.015625 47.476562 243.519531 47.777344 C 245.027344 48.074219 246.511719 48.449219 247.980469 48.894531 C 249.449219 49.339844 250.894531 49.855469 252.3125 50.441406 C 253.730469 51.03125 255.117188 51.6875 256.472656 52.410156 C 257.824219 53.132812 259.140625 53.921875 260.417969 54.773438 C 261.695312 55.628906 262.925781 56.542969 264.113281 57.515625 C 265.300781 58.488281 266.433594 59.519531 267.519531 60.605469 C 268.605469 61.691406 269.636719 62.824219 270.609375 64.011719 C 271.582031 65.199219 272.496094 66.429688 273.351562 67.707031 C 274.203125 68.984375 274.992188 70.300781 275.714844 71.652344 C 276.4375 73.007812 277.09375 74.394531 277.683594 75.8125 C 278.269531 77.230469 278.785156 78.671875 279.230469 80.144531 C 279.675781 81.613281 280.050781 83.097656 280.347656 84.605469 C 280.648438 86.109375 280.875 87.628906 281.023438 89.15625 C 281.175781 90.683594 281.25 92.214844 281.25 93.75 L 281.25 281.25 C 281.25 282.785156 281.175781 284.316406 281.023438 285.84375 C 280.875 287.371094 280.648438 288.890625 280.347656 290.394531 C 280.050781 291.902344 279.675781 293.386719 279.230469 294.855469 C 278.785156 296.324219 278.269531 297.769531 277.683594 299.1875 C 277.09375 300.605469 276.4375 301.992188 275.714844 303.347656 C 274.992188 304.699219 274.203125 306.015625 273.351562 307.292969 C 272.496094 308.570312 271.582031 309.800781 270.609375 310.988281 C 269.636719 312.175781 268.605469 313.308594 267.519531 314.394531 C 266.433594 315.480469 265.300781 316.511719 264.113281 317.484375 C 262.925781 318.457031 261.695312 319.371094 260.417969 320.226562 C 259.140625 321.078125 257.824219 321.867188 256.472656 322.589844 C 255.117188 323.3125 253.730469 323.96875 252.3125 324.558594 C 250.894531 325.144531 249.449219 325.660156 247.980469 326.105469 C 246.511719 326.550781 245.027344 326.925781 243.519531 327.222656 C 242.015625 327.523438 240.496094 327.75 238.96875 327.898438 C 237.441406 328.050781 235.910156 328.125 234.375 328.125 L 140.625 328.125 C 139.089844 328.125 137.558594 328.050781 136.03125 327.898438 C 134.503906 327.75 132.984375 327.523438 131.480469 327.222656 C 129.972656 326.925781 128.488281 326.550781 127.019531 326.105469 C 125.546875 325.660156 124.105469 325.144531 122.6875 324.558594 C 121.269531 323.96875 119.882812 323.3125 118.527344 322.589844 C 117.175781 321.867188 115.859375 321.078125 114.582031 320.226562 C 113.304688 319.371094 112.074219 318.457031 110.886719 317.484375 C 109.699219 316.511719 108.566406 315.480469 107.480469 314.394531 C 106.394531 313.308594 105.363281 312.175781 104.390625 310.988281 C 103.417969 309.800781 102.503906 308.570312 101.648438 307.292969 C 100.796875 306.015625 100.007812 304.699219 99.285156 303.347656 C 98.5625 301.992188 97.90625 300.605469 97.316406 299.1875 C 96.730469 297.769531 96.214844 296.324219 95.769531 294.855469 C 95.324219 293.386719 94.949219 291.902344 94.652344 290.394531 C 94.351562 288.890625 94.125 287.371094 93.976562 285.84375 C 93.824219 284.316406 93.75 282.785156 93.75 281.25 Z M 210.9375 257.8125 C 210.9375 257.042969 210.898438 256.277344 210.824219 255.515625 C 210.75 254.75 210.636719 253.992188 210.488281 253.238281 C 210.335938 252.488281 210.152344 251.742188 209.929688 251.007812 C 209.707031 250.273438 209.445312 249.550781 209.152344 248.84375 C 208.859375 248.132812 208.53125 247.441406 208.171875 246.765625 C 207.808594 246.085938 207.414062 245.429688 206.988281 244.792969 C 206.5625 244.152344 206.105469 243.539062 205.617188 242.945312 C 205.128906 242.351562 204.617188 241.78125 204.074219 241.238281 C 203.53125 240.695312 202.960938 240.183594 202.367188 239.695312 C 201.773438 239.207031 201.160156 238.75 200.519531 238.324219 C 199.882812 237.898438 199.226562 237.503906 198.546875 237.140625 C 197.871094 236.78125 197.179688 236.453125 196.46875 236.160156 C 195.761719 235.867188 195.039062 235.605469 194.304688 235.382812 C 193.570312 235.160156 192.824219 234.976562 192.074219 234.824219 C 191.320312 234.675781 190.5625 234.5625 189.796875 234.488281 C 189.035156 234.414062 188.269531 234.375 187.5 234.375 C 186.730469 234.375 185.964844 234.414062 185.203125 234.488281 C 184.4375 234.5625 183.679688 234.675781 182.925781 234.824219 C 182.175781 234.976562 181.429688 235.160156 180.695312 235.382812 C 179.960938 235.605469 179.238281 235.867188 178.53125 236.160156 C 177.820312 236.453125 177.128906 236.78125 176.453125 237.140625 C 175.773438 237.503906 175.117188 237.898438 174.480469 238.324219 C 173.839844 238.75 173.226562 239.207031 172.632812 239.695312 C 172.039062 240.183594 171.46875 240.695312 170.925781 241.238281 C 170.382812 241.78125 169.871094 242.351562 169.382812 242.945312 C 168.894531 243.539062 168.4375 244.152344 168.011719 244.792969 C 167.585938 245.429688 167.191406 246.085938 166.828125 246.765625 C 166.46875 247.441406 166.140625 248.132812 165.847656 248.84375 C 165.554688 249.550781 165.292969 250.273438 165.070312 251.007812 C 164.847656 251.742188 164.664062 252.488281 164.511719 253.238281 C 164.363281 253.992188 164.25 254.75 164.175781 255.515625 C 164.101562 256.277344 164.0625 257.042969 164.0625 257.8125 C 164.0625 258.582031 164.101562 259.347656 164.175781 260.109375 C 164.25 260.875 164.363281 261.632812 164.511719 262.386719 C 164.664062 263.136719 164.847656 263.882812 165.070312 264.617188 C 165.292969 265.351562 165.554688 266.074219 165.847656 266.78125 C 166.140625 267.492188 166.46875 268.183594 166.828125 268.859375 C 167.191406 269.539062 167.585938 270.195312 168.011719 270.832031 C 168.4375 271.472656 168.894531 272.085938 169.382812 272.679688 C 169.871094 273.273438 170.382812 273.84375 170.925781 274.386719 C 171.46875 274.929688 172.039062 275.441406 172.632812 275.929688 C 173.226562 276.417969 173.839844 276.875 174.480469 277.300781 C 175.117188 277.726562 175.773438 278.121094 176.453125 278.484375 C 177.128906 278.84375 177.820312 279.171875 178.53125 279.464844 C 179.238281 279.757812 179.960938 280.019531 180.695312 280.242188 C 181.429688 280.464844 182.175781 280.648438 182.925781 280.800781 C 183.679688 280.949219 184.4375 281.0625 185.203125 281.136719 C 185.964844 281.210938 186.730469 281.25 187.5 281.25 C 188.269531 281.25 189.035156 281.210938 189.796875 281.136719 C 190.5625 281.0625 191.320312 280.949219 192.074219 280.800781 C 192.824219 280.648438 193.570312 280.464844 194.304688 280.242188 C 195.039062 280.019531 195.761719 279.757812 196.46875 279.464844 C 197.179688 279.171875 197.871094 278.84375 198.546875 278.484375 C 199.226562 278.121094 199.882812 277.726562 200.519531 277.300781 C 201.160156 276.875 201.773438 276.417969 202.367188 275.929688 C 202.960938 275.441406 203.53125 274.929688 204.074219 274.386719 C 204.617188 273.84375 205.128906 273.273438 205.617188 272.679688 C 206.105469 272.085938 206.5625 271.472656 206.988281 270.832031 C 207.414062 270.195312 207.808594 269.539062 208.171875 268.859375 C 208.53125 268.183594 208.859375 267.492188 209.152344 266.78125 C 209.445312 266.074219 209.707031 265.351562 209.929688 264.617188 C 210.152344 263.882812 210.335938 263.136719 210.488281 262.386719 C 210.636719 261.632812 210.75 260.875 210.824219 260.109375 C 210.898438 259.347656 210.9375 258.582031 210.9375 257.8125 Z M 42.351562 110.953125 C 42.710938 110.273438 43.003906 109.5625 43.222656 108.828125 C 43.445312 108.089844 43.59375 107.335938 43.664062 106.570312 C 43.738281 105.804688 43.734375 105.039062 43.65625 104.273438 C 43.578125 103.503906 43.425781 102.753906 43.199219 102.019531 C 42.972656 101.28125 42.675781 100.574219 42.3125 99.898438 C 41.945312 99.21875 41.519531 98.585938 41.027344 97.992188 C 40.539062 97.398438 39.992188 96.859375 39.394531 96.371094 C 38.800781 95.886719 38.160156 95.464844 37.480469 95.101562 C 36.800781 94.742188 36.089844 94.453125 35.351562 94.230469 C 34.613281 94.011719 33.863281 93.863281 33.097656 93.792969 C 32.328125 93.71875 31.5625 93.722656 30.796875 93.800781 C 30.03125 93.882812 29.28125 94.035156 28.546875 94.261719 C 27.808594 94.488281 27.101562 94.785156 26.425781 95.148438 C 25.746094 95.515625 25.113281 95.945312 24.519531 96.433594 C 23.925781 96.925781 23.386719 97.46875 22.902344 98.066406 C 22.414062 98.664062 21.992188 99.304688 21.632812 99.984375 C 18.082031 106.699219 14.957031 113.609375 12.25 120.707031 C 9.542969 127.804688 7.277344 135.042969 5.457031 142.417969 C 3.632812 149.792969 2.265625 157.25 1.351562 164.792969 C 0.441406 172.332031 -0.0117188 179.902344 0 187.5 C 0 219.070312 7.828125 248.859375 21.632812 275.015625 C 21.992188 275.695312 22.414062 276.335938 22.902344 276.933594 C 23.386719 277.527344 23.925781 278.074219 24.519531 278.5625 C 25.113281 279.054688 25.746094 279.484375 26.425781 279.847656 C 27.101562 280.214844 27.808594 280.511719 28.546875 280.738281 C 29.28125 280.964844 30.03125 281.117188 30.796875 281.195312 C 31.5625 281.273438 32.328125 281.277344 33.09375 281.203125 C 33.863281 281.132812 34.613281 280.984375 35.351562 280.765625 C 36.089844 280.542969 36.796875 280.253906 37.476562 279.894531 C 38.160156 279.535156 38.796875 279.109375 39.394531 278.625 C 39.992188 278.140625 40.535156 277.597656 41.027344 277.007812 C 41.515625 276.414062 41.945312 275.777344 42.308594 275.101562 C 42.675781 274.421875 42.972656 273.714844 43.199219 272.980469 C 43.425781 272.246094 43.578125 271.492188 43.65625 270.726562 C 43.734375 269.960938 43.734375 269.195312 43.664062 268.429688 C 43.589844 267.664062 43.445312 266.910156 43.222656 266.171875 C 43.003906 265.4375 42.710938 264.726562 42.351562 264.046875 C 39.246094 258.171875 36.511719 252.128906 34.144531 245.921875 C 31.777344 239.710938 29.796875 233.382812 28.203125 226.933594 C 26.609375 220.480469 25.414062 213.957031 24.617188 207.363281 C 23.820312 200.765625 23.425781 194.144531 23.4375 187.5 C 23.4375 159.84375 30.28125 133.78125 42.351562 110.953125 Z M 353.367188 99.984375 C 353.007812 99.304688 352.585938 98.664062 352.097656 98.070312 C 351.613281 97.472656 351.074219 96.929688 350.480469 96.4375 C 349.886719 95.945312 349.25 95.519531 348.574219 95.152344 C 347.898438 94.789062 347.191406 94.492188 346.453125 94.265625 C 345.71875 94.039062 344.96875 93.886719 344.203125 93.808594 C 343.4375 93.730469 342.671875 93.726562 341.90625 93.800781 C 341.140625 93.871094 340.386719 94.019531 339.648438 94.238281 C 338.914062 94.457031 338.203125 94.75 337.523438 95.109375 C 336.84375 95.46875 336.203125 95.890625 335.609375 96.378906 C 335.011719 96.863281 334.46875 97.402344 333.976562 97.996094 C 333.484375 98.589844 333.058594 99.226562 332.691406 99.902344 C 332.328125 100.578125 332.03125 101.285156 331.804688 102.023438 C 331.578125 102.757812 331.425781 103.507812 331.347656 104.273438 C 331.269531 105.039062 331.265625 105.804688 331.339844 106.570312 C 331.410156 107.335938 331.558594 108.089844 331.777344 108.828125 C 331.996094 109.5625 332.289062 110.273438 332.648438 110.953125 C 344.71875 133.78125 351.5625 159.820312 351.5625 187.5 C 351.5625 215.15625 344.71875 241.21875 332.648438 264.046875 C 332.289062 264.726562 332 265.4375 331.78125 266.171875 C 331.5625 266.910156 331.414062 267.660156 331.34375 268.425781 C 331.273438 269.191406 331.273438 269.957031 331.355469 270.722656 C 331.433594 271.488281 331.585938 272.238281 331.8125 272.972656 C 332.039062 273.707031 332.335938 274.414062 332.699219 275.089844 C 333.066406 275.765625 333.492188 276.402344 333.984375 276.996094 C 334.476562 277.585938 335.019531 278.125 335.613281 278.609375 C 336.210938 279.097656 336.851562 279.519531 337.53125 279.878906 C 338.210938 280.238281 338.917969 280.53125 339.652344 280.75 C 340.390625 280.96875 341.140625 281.117188 341.90625 281.1875 C 342.671875 281.261719 343.4375 281.257812 344.203125 281.179688 C 344.96875 281.101562 345.71875 280.949219 346.453125 280.726562 C 347.191406 280.5 347.894531 280.203125 348.574219 279.839844 C 349.25 279.472656 349.886719 279.046875 350.476562 278.558594 C 351.070312 278.066406 351.609375 277.523438 352.097656 276.929688 C 352.582031 276.332031 353.007812 275.695312 353.367188 275.015625 C 356.917969 268.300781 360.042969 261.390625 362.75 254.292969 C 365.457031 247.195312 367.722656 239.957031 369.542969 232.582031 C 371.367188 225.207031 372.734375 217.75 373.648438 210.207031 C 374.558594 202.667969 375.011719 195.097656 375 187.5 C 375.011719 179.902344 374.558594 172.332031 373.648438 164.792969 C 372.734375 157.25 371.367188 149.792969 369.542969 142.417969 C 367.722656 135.042969 365.457031 127.804688 362.75 120.707031 C 360.042969 113.609375 356.917969 106.699219 353.367188 99.984375 Z M 78.28125 144.890625 C 78.609375 144.167969 78.859375 143.417969 79.035156 142.640625 C 79.207031 141.867188 79.300781 141.082031 79.316406 140.285156 C 79.332031 139.492188 79.265625 138.703125 79.121094 137.921875 C 78.976562 137.140625 78.753906 136.382812 78.453125 135.648438 C 78.152344 134.910156 77.78125 134.214844 77.339844 133.554688 C 76.898438 132.890625 76.394531 132.28125 75.832031 131.726562 C 75.265625 131.167969 74.648438 130.671875 73.980469 130.238281 C 73.316406 129.804688 72.613281 129.445312 71.871094 129.15625 C 71.132812 128.867188 70.371094 128.652344 69.585938 128.519531 C 68.804688 128.382812 68.015625 128.328125 67.222656 128.355469 C 66.425781 128.382812 65.644531 128.488281 64.871094 128.671875 C 64.097656 128.855469 63.351562 129.117188 62.632812 129.453125 C 61.914062 129.792969 61.234375 130.199219 60.597656 130.671875 C 59.960938 131.148438 59.378906 131.683594 58.847656 132.273438 C 58.320312 132.867188 57.855469 133.507812 57.457031 134.195312 C 57.0625 134.886719 56.734375 135.605469 56.484375 136.359375 C 53.300781 144.507812 50.902344 152.882812 49.289062 161.480469 C 47.671875 170.078125 46.867188 178.75 46.875 187.5 C 46.875 205.523438 50.273438 222.773438 56.484375 238.640625 C 56.734375 239.394531 57.0625 240.113281 57.457031 240.804688 C 57.855469 241.492188 58.320312 242.132812 58.847656 242.726562 C 59.378906 243.316406 59.960938 243.851562 60.597656 244.328125 C 61.234375 244.800781 61.914062 245.207031 62.632812 245.546875 C 63.351562 245.882812 64.097656 246.144531 64.871094 246.328125 C 65.644531 246.511719 66.425781 246.617188 67.222656 246.644531 C 68.015625 246.671875 68.804688 246.617188 69.585938 246.480469 C 70.371094 246.347656 71.132812 246.132812 71.871094 245.84375 C 72.613281 245.554688 73.316406 245.195312 73.980469 244.761719 C 74.648438 244.328125 75.265625 243.832031 75.828125 243.273438 C 76.394531 242.71875 76.898438 242.109375 77.339844 241.445312 C 77.78125 240.785156 78.152344 240.089844 78.453125 239.351562 C 78.753906 238.617188 78.976562 237.859375 79.121094 237.078125 C 79.265625 236.296875 79.332031 235.507812 79.316406 234.714844 C 79.300781 233.917969 79.207031 233.132812 79.035156 232.359375 C 78.859375 231.582031 78.609375 230.832031 78.28125 230.109375 C 75.636719 223.320312 73.644531 216.339844 72.304688 209.175781 C 70.964844 202.015625 70.300781 194.789062 70.3125 187.5 C 70.3125 172.453125 73.125 158.085938 78.28125 144.890625 Z M 318.515625 136.359375 C 318.210938 135.679688 317.839844 135.039062 317.414062 134.429688 C 316.984375 133.820312 316.5 133.257812 315.964844 132.742188 C 315.429688 132.226562 314.847656 131.765625 314.226562 131.359375 C 313.601562 130.953125 312.945312 130.609375 312.253906 130.328125 C 311.566406 130.046875 310.855469 129.835938 310.128906 129.6875 C 309.398438 129.542969 308.660156 129.46875 307.914062 129.464844 C 307.171875 129.457031 306.433594 129.523438 305.703125 129.660156 C 304.96875 129.792969 304.257812 129.996094 303.5625 130.269531 C 302.871094 130.539062 302.210938 130.875 301.582031 131.273438 C 300.949219 131.667969 300.363281 132.121094 299.820312 132.632812 C 299.277344 133.140625 298.789062 133.695312 298.351562 134.296875 C 297.914062 134.902344 297.539062 135.539062 297.222656 136.214844 C 296.90625 136.886719 296.65625 137.585938 296.472656 138.304688 C 296.292969 139.027344 296.179688 139.761719 296.136719 140.503906 C 296.09375 141.246094 296.121094 141.988281 296.21875 142.726562 C 296.316406 143.460938 296.484375 144.183594 296.71875 144.890625 C 301.875 158.085938 304.6875 172.453125 304.6875 187.5 C 304.6875 202.546875 301.875 216.914062 296.71875 230.109375 C 296.484375 230.816406 296.316406 231.539062 296.21875 232.273438 C 296.121094 233.011719 296.09375 233.753906 296.136719 234.496094 C 296.179688 235.238281 296.292969 235.972656 296.472656 236.695312 C 296.65625 237.414062 296.90625 238.113281 297.222656 238.785156 C 297.539062 239.460938 297.914062 240.097656 298.351562 240.703125 C 298.789062 241.304688 299.277344 241.859375 299.820312 242.367188 C 300.363281 242.878906 300.949219 243.332031 301.582031 243.726562 C 302.210938 244.125 302.871094 244.460938 303.5625 244.730469 C 304.257812 245.003906 304.96875 245.207031 305.703125 245.339844 C 306.433594 245.476562 307.171875 245.542969 307.914062 245.535156 C 308.660156 245.53125 309.398438 245.457031 310.125 245.3125 C 310.855469 245.164062 311.566406 244.953125 312.253906 244.671875 C 312.945312 244.390625 313.601562 244.046875 314.226562 243.640625 C 314.847656 243.234375 315.429688 242.773438 315.964844 242.257812 C 316.5 241.742188 316.984375 241.179688 317.414062 240.570312 C 317.839844 239.960938 318.210938 239.320312 318.515625 238.640625 C 324.75 222.773438 328.125 205.523438 328.125 187.5 C 328.125 169.476562 324.726562 152.226562 318.515625 136.359375 Z M 318.515625 136.359375 "/>
</g>
</svg>
