<?xml version="1.0" encoding="UTF-8"?>
<svg xmlns="http://www.w3.org/2000/svg" xmlns:xlink="http://www.w3.org/1999/xlink" width="375pt" height="374.999991pt" viewBox="0 0 375 374.999991" version="1.2">
<g id="surface1">
<path style=" stroke:none;fill-rule:nonzero;fill:rgb(100%,100%,100%);fill-opacity:1;" d="M 275.203125 242.4375 C 277.074219 239.886719 278.863281 237.277344 280.570312 234.617188 C 282.277344 231.953125 283.898438 229.238281 285.4375 226.476562 C 286.976562 223.710938 288.425781 220.902344 289.789062 218.046875 C 291.152344 215.195312 292.425781 212.300781 293.609375 209.367188 C 294.792969 206.433594 295.882812 203.464844 296.882812 200.464844 C 297.878906 197.460938 298.785156 194.433594 299.59375 191.375 C 300.402344 188.316406 301.117188 185.238281 301.734375 182.136719 C 302.351562 179.03125 302.871094 175.914062 303.296875 172.78125 C 303.71875 169.644531 304.042969 166.5 304.273438 163.34375 C 304.5 160.191406 304.628906 157.03125 304.660156 153.867188 C 304.691406 150.703125 304.621094 147.542969 304.457031 144.386719 C 304.289062 141.226562 304.027344 138.074219 303.664062 134.933594 C 303.300781 131.789062 302.839844 128.664062 302.285156 125.550781 C 301.726562 122.433594 301.074219 119.34375 300.324219 116.269531 C 299.574219 113.195312 298.726562 110.148438 297.789062 107.128906 C 296.847656 104.109375 295.816406 101.121094 294.691406 98.164062 C 293.5625 95.207031 292.347656 92.289062 291.039062 89.410156 C 289.730469 86.53125 288.335938 83.691406 286.851562 80.898438 C 285.367188 78.105469 283.796875 75.363281 282.144531 72.667969 C 280.488281 69.972656 278.75 67.328125 276.929688 64.742188 C 275.109375 62.15625 273.210938 59.625 271.234375 57.15625 C 269.257812 54.6875 267.203125 52.285156 265.078125 49.941406 C 262.949219 47.601562 260.753906 45.328125 258.484375 43.125 C 256.214844 40.921875 253.878906 38.789062 251.480469 36.730469 C 249.078125 34.671875 246.613281 32.6875 244.089844 30.785156 C 241.5625 28.878906 238.984375 27.054688 236.34375 25.308594 C 233.707031 23.5625 231.015625 21.902344 228.273438 20.324219 C 225.53125 18.75 222.742188 17.257812 219.90625 15.855469 C 217.074219 14.453125 214.195312 13.136719 211.28125 11.914062 C 208.363281 10.691406 205.410156 9.558594 202.425781 8.519531 C 199.4375 7.476562 196.421875 6.53125 193.375 5.679688 C 190.328125 4.828125 187.257812 4.070312 184.164062 3.410156 C 181.070312 2.746094 177.960938 2.183594 174.832031 1.714844 C 171.703125 1.25 168.5625 0.878906 165.414062 0.605469 C 162.261719 0.335938 159.105469 0.160156 155.941406 0.0859375 C 152.78125 0.0117188 149.617188 0.0351562 146.457031 0.15625 C 143.296875 0.277344 140.140625 0.5 136.996094 0.816406 C 133.847656 1.136719 130.714844 1.550781 127.59375 2.0625 C 124.472656 2.578125 121.367188 3.1875 118.285156 3.894531 C 115.203125 4.601562 112.144531 5.402344 109.109375 6.300781 C 106.078125 7.199219 103.074219 8.1875 100.105469 9.273438 C 97.132812 10.355469 94.199219 11.53125 91.300781 12.800781 C 88.402344 14.066406 85.542969 15.421875 82.730469 16.867188 C 79.917969 18.3125 77.152344 19.84375 74.433594 21.460938 C 71.714844 23.078125 69.046875 24.777344 66.4375 26.5625 C 63.824219 28.34375 61.269531 30.207031 58.773438 32.152344 C 56.277344 34.09375 53.84375 36.109375 51.472656 38.207031 C 49.101562 40.300781 46.796875 42.464844 44.5625 44.703125 C 42.324219 46.941406 40.160156 49.246094 38.070312 51.617188 C 35.976562 53.988281 33.960938 56.425781 32.019531 58.921875 C 30.078125 61.421875 28.21875 63.976562 26.4375 66.589844 C 24.65625 69.203125 22.957031 71.871094 21.339844 74.589844 C 19.726562 77.308594 18.195312 80.078125 16.753906 82.890625 C 15.308594 85.707031 13.957031 88.5625 12.691406 91.464844 C 11.425781 94.363281 10.253906 97.296875 9.171875 100.269531 C 8.089844 103.242188 7.101562 106.246094 6.203125 109.28125 C 5.308594 112.3125 4.511719 115.371094 3.804688 118.457031 C 3.101562 121.539062 2.492188 124.644531 1.980469 127.765625 C 1.472656 130.886719 1.058594 134.019531 0.742188 137.167969 C 0.425781 140.316406 0.207031 143.46875 0.0859375 146.628906 C -0.03125 149.792969 -0.0507812 152.953125 0.0234375 156.113281 C 0.101562 159.277344 0.277344 162.433594 0.550781 165.585938 C 0.824219 168.738281 1.199219 171.875 1.667969 175.003906 C 2.136719 178.132812 2.703125 181.242188 3.367188 184.335938 C 4.03125 187.429688 4.789062 190.5 5.644531 193.542969 C 6.5 196.589844 7.445312 199.605469 8.488281 202.589844 C 9.53125 205.578125 10.664062 208.53125 11.890625 211.445312 C 13.117188 214.359375 14.433594 217.234375 15.839844 220.070312 C 17.246094 222.902344 18.738281 225.691406 20.316406 228.433594 C 21.894531 231.171875 23.558594 233.863281 25.304688 236.5 C 27.050781 239.136719 28.878906 241.71875 30.785156 244.242188 C 32.691406 246.765625 34.675781 249.226562 36.734375 251.625 C 38.796875 254.027344 40.929688 256.359375 43.136719 258.625 C 45.339844 260.894531 47.617188 263.089844 49.957031 265.214844 C 52.300781 267.339844 54.707031 269.390625 57.179688 271.367188 C 59.648438 273.34375 62.179688 275.238281 64.765625 277.058594 C 67.355469 278.875 70 280.609375 72.695312 282.265625 C 75.390625 283.917969 78.136719 285.484375 80.929688 286.96875 C 83.726562 288.449219 86.5625 289.84375 89.445312 291.148438 C 92.324219 292.453125 95.246094 293.667969 98.203125 294.792969 C 101.160156 295.917969 104.148438 296.949219 107.167969 297.886719 C 110.191406 298.824219 113.238281 299.664062 116.308594 300.414062 C 119.382812 301.160156 122.476562 301.8125 125.59375 302.367188 C 128.707031 302.921875 131.835938 303.378906 134.976562 303.742188 C 138.121094 304.101562 141.269531 304.363281 144.429688 304.527344 C 147.589844 304.691406 150.75 304.753906 153.914062 304.722656 C 157.074219 304.691406 160.234375 304.558594 163.390625 304.328125 C 166.542969 304.097656 169.6875 303.769531 172.824219 303.34375 C 175.957031 302.917969 179.074219 302.398438 182.175781 301.777344 C 185.277344 301.15625 188.359375 300.441406 191.414062 299.628906 C 194.472656 298.816406 197.503906 297.910156 200.503906 296.910156 C 203.503906 295.910156 206.46875 294.820312 209.402344 293.632812 C 212.335938 292.449219 215.230469 291.171875 218.082031 289.808594 C 220.9375 288.441406 223.742188 286.988281 226.507812 285.449219 C 229.269531 283.910156 231.980469 282.285156 234.644531 280.574219 C 237.304688 278.863281 239.910156 277.074219 242.460938 275.203125 L 242.4375 275.203125 C 243.140625 276.140625 243.890625 277.03125 244.734375 277.898438 L 334.96875 368.132812 C 335.511719 368.675781 336.078125 369.191406 336.671875 369.679688 C 337.265625 370.164062 337.882812 370.621094 338.519531 371.050781 C 339.160156 371.476562 339.816406 371.871094 340.492188 372.234375 C 341.167969 372.59375 341.863281 372.921875 342.570312 373.21875 C 343.28125 373.511719 344.003906 373.769531 344.738281 373.992188 C 345.472656 374.214844 346.214844 374.402344 346.96875 374.550781 C 347.722656 374.703125 348.480469 374.816406 349.246094 374.890625 C 350.007812 374.964844 350.773438 375.003906 351.542969 375.003906 C 352.308594 375.003906 353.074219 374.96875 353.839844 374.894531 C 354.605469 374.816406 355.363281 374.707031 356.117188 374.554688 C 356.867188 374.40625 357.613281 374.21875 358.347656 373.996094 C 359.082031 373.773438 359.804688 373.515625 360.515625 373.222656 C 361.222656 372.929688 361.917969 372.601562 362.59375 372.242188 C 363.269531 371.878906 363.929688 371.484375 364.566406 371.058594 C 365.207031 370.632812 365.824219 370.175781 366.414062 369.6875 C 367.007812 369.203125 367.578125 368.6875 368.121094 368.144531 C 368.664062 367.601562 369.179688 367.035156 369.667969 366.441406 C 370.152344 365.847656 370.609375 365.230469 371.039062 364.59375 C 371.464844 363.953125 371.859375 363.296875 372.222656 362.621094 C 372.582031 361.945312 372.910156 361.25 373.207031 360.542969 C 373.5 359.832031 373.757812 359.109375 373.980469 358.375 C 374.203125 357.640625 374.390625 356.898438 374.539062 356.144531 C 374.691406 355.390625 374.804688 354.632812 374.878906 353.867188 C 374.953125 353.105469 374.992188 352.339844 374.992188 351.570312 C 374.992188 350.804688 374.957031 350.035156 374.882812 349.273438 C 374.804688 348.507812 374.695312 347.75 374.542969 346.996094 C 374.394531 346.246094 374.207031 345.5 373.984375 344.765625 C 373.761719 344.03125 373.503906 343.308594 373.210938 342.597656 C 372.917969 341.890625 372.589844 341.195312 372.230469 340.519531 C 371.867188 339.84375 371.472656 339.183594 371.046875 338.546875 C 370.621094 337.90625 370.164062 337.289062 369.675781 336.695312 C 369.191406 336.105469 368.675781 335.535156 368.132812 334.992188 L 277.898438 244.757812 C 277.058594 243.910156 276.160156 243.128906 275.203125 242.414062 Z M 281.25 152.34375 C 281.25 154.453125 281.199219 156.5625 281.09375 158.667969 C 280.992188 160.777344 280.835938 162.878906 280.628906 164.980469 C 280.421875 167.078125 280.164062 169.171875 279.855469 171.257812 C 279.546875 173.34375 279.183594 175.421875 278.773438 177.492188 C 278.363281 179.5625 277.898438 181.617188 277.386719 183.664062 C 276.875 185.710938 276.3125 187.746094 275.699219 189.761719 C 275.085938 191.78125 274.425781 193.785156 273.714844 195.769531 C 273.003906 197.757812 272.246094 199.726562 271.4375 201.675781 C 270.628906 203.621094 269.777344 205.550781 268.875 207.457031 C 267.972656 209.367188 267.023438 211.25 266.027344 213.109375 C 265.035156 214.96875 263.996094 216.804688 262.910156 218.613281 C 261.824219 220.425781 260.699219 222.207031 259.523438 223.960938 C 258.351562 225.714844 257.140625 227.4375 255.882812 229.132812 C 254.625 230.828125 253.328125 232.488281 251.988281 234.121094 C 250.652344 235.75 249.273438 237.347656 247.855469 238.910156 C 246.441406 240.476562 244.984375 242.003906 243.496094 243.496094 C 242.003906 244.984375 240.476562 246.441406 238.910156 247.855469 C 237.347656 249.273438 235.75 250.652344 234.121094 251.988281 C 232.488281 253.328125 230.828125 254.625 229.132812 255.882812 C 227.4375 257.140625 225.714844 258.351562 223.960938 259.523438 C 222.207031 260.699219 220.425781 261.824219 218.613281 262.910156 C 216.804688 263.996094 214.96875 265.035156 213.109375 266.027344 C 211.25 267.023438 209.367188 267.972656 207.457031 268.875 C 205.550781 269.777344 203.621094 270.628906 201.675781 271.4375 C 199.726562 272.246094 197.757812 273.003906 195.769531 273.714844 C 193.785156 274.425781 191.78125 275.085938 189.761719 275.699219 C 187.746094 276.3125 185.710938 276.875 183.664062 277.386719 C 181.617188 277.898438 179.5625 278.363281 177.492188 278.773438 C 175.421875 279.183594 173.34375 279.546875 171.257812 279.855469 C 169.171875 280.164062 167.078125 280.421875 164.980469 280.628906 C 162.878906 280.835938 160.777344 280.992188 158.667969 281.09375 C 156.5625 281.199219 154.453125 281.25 152.34375 281.25 C 150.234375 281.25 148.125 281.199219 146.019531 281.09375 C 143.910156 280.992188 141.808594 280.835938 139.707031 280.628906 C 137.609375 280.421875 135.515625 280.164062 133.429688 279.855469 C 131.34375 279.546875 129.265625 279.183594 127.195312 278.773438 C 125.125 278.363281 123.070312 277.898438 121.023438 277.386719 C 118.976562 276.875 116.941406 276.3125 114.925781 275.699219 C 112.90625 275.085938 110.902344 274.425781 108.917969 273.714844 C 106.929688 273.003906 104.960938 272.246094 103.011719 271.4375 C 101.0625 270.628906 99.136719 269.777344 97.230469 268.875 C 95.320312 267.972656 93.4375 267.023438 91.578125 266.027344 C 89.71875 265.035156 87.882812 263.996094 86.074219 262.910156 C 84.261719 261.824219 82.480469 260.699219 80.726562 259.523438 C 78.972656 258.351562 77.25 257.140625 75.554688 255.882812 C 73.859375 254.625 72.199219 253.328125 70.566406 251.988281 C 68.9375 250.652344 67.339844 249.273438 65.777344 247.855469 C 64.210938 246.441406 62.683594 244.984375 61.191406 243.496094 C 59.703125 242.003906 58.246094 240.476562 56.832031 238.910156 C 55.414062 237.347656 54.035156 235.75 52.699219 234.121094 C 51.359375 232.488281 50.0625 230.828125 48.804688 229.132812 C 47.546875 227.4375 46.335938 225.714844 45.164062 223.960938 C 43.988281 222.207031 42.863281 220.425781 41.777344 218.613281 C 40.691406 216.804688 39.652344 214.96875 38.660156 213.109375 C 37.664062 211.25 36.714844 209.367188 35.8125 207.457031 C 34.910156 205.550781 34.058594 203.621094 33.25 201.675781 C 32.441406 199.726562 31.683594 197.757812 30.972656 195.769531 C 30.261719 193.785156 29.601562 191.78125 28.988281 189.761719 C 28.375 187.746094 27.8125 185.710938 27.300781 183.664062 C 26.789062 181.617188 26.324219 179.5625 25.914062 177.492188 C 25.503906 175.421875 25.140625 173.34375 24.832031 171.257812 C 24.523438 169.171875 24.265625 167.078125 24.058594 164.980469 C 23.851562 162.878906 23.695312 160.777344 23.59375 158.667969 C 23.488281 156.5625 23.4375 154.453125 23.4375 152.34375 C 23.4375 150.234375 23.488281 148.125 23.59375 146.019531 C 23.695312 143.910156 23.851562 141.808594 24.058594 139.707031 C 24.265625 137.609375 24.523438 135.515625 24.832031 133.429688 C 25.140625 131.34375 25.503906 129.265625 25.914062 127.195312 C 26.324219 125.125 26.789062 123.070312 27.300781 121.023438 C 27.8125 118.976562 28.375 116.941406 28.988281 114.925781 C 29.601562 112.90625 30.261719 110.902344 30.972656 108.917969 C 31.683594 106.929688 32.441406 104.960938 33.25 103.011719 C 34.058594 101.0625 34.910156 99.136719 35.8125 97.230469 C 36.714844 95.320312 37.664062 93.4375 38.660156 91.578125 C 39.652344 89.71875 40.691406 87.882812 41.777344 86.074219 C 42.863281 84.261719 43.988281 82.480469 45.164062 80.726562 C 46.335938 78.972656 47.546875 77.25 48.804688 75.554688 C 50.0625 73.859375 51.359375 72.195312 52.699219 70.566406 C 54.035156 68.9375 55.414062 67.339844 56.832031 65.777344 C 58.246094 64.210938 59.703125 62.683594 61.191406 61.191406 C 62.683594 59.703125 64.210938 58.246094 65.777344 56.832031 C 67.339844 55.414062 68.9375 54.035156 70.566406 52.699219 C 72.199219 51.359375 73.859375 50.0625 75.554688 48.804688 C 77.25 47.546875 78.972656 46.335938 80.726562 45.164062 C 82.480469 43.988281 84.261719 42.863281 86.074219 41.777344 C 87.882812 40.691406 89.71875 39.652344 91.578125 38.660156 C 93.4375 37.664062 95.320312 36.714844 97.230469 35.8125 C 99.136719 34.910156 101.0625 34.058594 103.011719 33.25 C 104.960938 32.441406 106.929688 31.683594 108.917969 30.972656 C 110.902344 30.261719 112.90625 29.601562 114.925781 28.988281 C 116.941406 28.375 118.976562 27.8125 121.023438 27.300781 C 123.070312 26.789062 125.125 26.324219 127.195312 25.914062 C 129.265625 25.503906 131.34375 25.140625 133.429688 24.832031 C 135.515625 24.523438 137.609375 24.265625 139.707031 24.058594 C 141.808594 23.851562 143.910156 23.695312 146.019531 23.59375 C 148.125 23.488281 150.234375 23.4375 152.34375 23.4375 C 154.453125 23.4375 156.5625 23.488281 158.667969 23.59375 C 160.777344 23.695312 162.878906 23.851562 164.980469 24.058594 C 167.078125 24.265625 169.171875 24.523438 171.257812 24.832031 C 173.34375 25.140625 175.421875 25.503906 177.492188 25.914062 C 179.5625 26.324219 181.617188 26.789062 183.664062 27.300781 C 185.710938 27.8125 187.746094 28.375 189.761719 28.988281 C 191.78125 29.601562 193.785156 30.261719 195.769531 30.972656 C 197.757812 31.683594 199.726562 32.441406 201.675781 33.25 C 203.621094 34.058594 205.550781 34.910156 207.457031 35.8125 C 209.367188 36.714844 211.25 37.664062 213.109375 38.660156 C 214.96875 39.652344 216.804688 40.691406 218.613281 41.777344 C 220.425781 42.863281 222.207031 43.988281 223.960938 45.164062 C 225.714844 46.335938 227.4375 47.546875 229.132812 48.804688 C 230.828125 50.0625 232.488281 51.359375 234.121094 52.699219 C 235.75 54.035156 237.347656 55.414062 238.910156 56.832031 C 240.476562 58.246094 242.003906 59.703125 243.496094 61.191406 C 244.984375 62.683594 246.441406 64.210938 247.855469 65.777344 C 249.273438 67.339844 250.652344 68.9375 251.988281 70.566406 C 253.328125 72.199219 254.625 73.859375 255.882812 75.554688 C 257.140625 77.25 258.351562 78.972656 259.523438 80.726562 C 260.699219 82.480469 261.824219 84.261719 262.910156 86.074219 C 263.996094 87.882812 265.035156 89.71875 266.027344 91.578125 C 267.023438 93.4375 267.972656 95.320312 268.875 97.230469 C 269.777344 99.136719 270.628906 101.0625 271.4375 103.011719 C 272.246094 104.960938 273.003906 106.929688 273.714844 108.917969 C 274.425781 110.902344 275.085938 112.90625 275.699219 114.925781 C 276.3125 116.941406 276.875 118.976562 277.386719 121.023438 C 277.898438 123.070312 278.363281 125.125 278.773438 127.195312 C 279.183594 129.265625 279.546875 131.34375 279.855469 133.429688 C 280.164062 135.515625 280.421875 137.609375 280.628906 139.707031 C 280.835938 141.808594 280.992188 143.910156 281.09375 146.019531 C 281.199219 148.125 281.25 150.234375 281.25 152.34375 Z M 281.25 152.34375 "/>
</g>
</svg>
